<?xml version="1.0" standalone="no"?>
<!DOCTYPE svg PUBLIC "-//W3C//DTD SVG 20010904//EN"
 "http://www.w3.org/TR/2001/REC-SVG-20010904/DTD/svg10.dtd">
<svg version="1.0" xmlns="http://www.w3.org/2000/svg"
 width="1842.000000pt" height="757.000000pt" viewBox="0 0 1842.000000 757.000000"
 preserveAspectRatio="xMidYMid meet">

<g transform="translate(0.000000,757.000000) scale(0.100000,-0.100000)"
fill="#000000" stroke="none">
<path d="M0 7270 l0 -300 331 0 c217 0 328 -3 324 -10 -4 -6 -125 -10 -331
-10 l-324 0 0 -134 0 -135 53 -3 52 -3 3 -65 c5 -102 1 -110 -58 -110 l-50 0
0 -447 c1 -339 3 -443 12 -428 14 24 28 35 48 35 8 0 4 -6 -10 -13 -49 -24
-33 -97 21 -97 47 0 65 67 27 94 -12 9 -17 16 -11 16 26 0 45 -33 40 -71 -3
-26 0 -42 12 -55 15 -18 15 -18 -4 -2 -13 11 -30 15 -43 11 -36 -9 -70 5 -80
34 -7 20 -11 -93 -11 -377 -1 -395 0 -406 19 -418 25 -16 25 -34 0 -57 -18
-16 -20 -31 -20 -154 0 -125 2 -137 20 -149 11 -7 20 -18 20 -26 0 -7 -9 -21
-20 -31 -20 -18 -20 -31 -20 -1954 0 -1925 0 -1936 20 -1949 11 -7 20 -18 20
-26 0 -7 -9 -21 -20 -31 -18 -16 -20 -31 -20 -154 0 -125 2 -137 20 -149 11
-7 20 -18 20 -26 0 -7 -9 -21 -20 -31 -41 -37 -27 -45 83 -45 l102 0 0 67 c0
67 0 68 29 71 16 2 33 -1 39 -7 6 -6 30 -11 54 -11 37 0 43 -3 49 -25 3 -14 4
-41 2 -60 l-4 -35 9023 0 9023 0 0 3785 0 3785 -9210 0 -9210 0 0 -300z m964
30 c15 -5 34 -25 43 -45 16 -33 16 -37 0 -70 -21 -45 -57 -60 -104 -44 -70 23
-78 119 -14 154 31 17 42 18 75 5z m2420 0 c15 -5 34 -25 43 -45 16 -33 16
-37 0 -70 -21 -45 -57 -60 -104 -44 -70 23 -78 119 -14 154 31 17 42 18 75 5z
m1124 -60 c5 -108 4 -110 -81 -110 -43 0 -78 5 -85 12 -13 13 -17 124 -6 153
5 13 20 15 88 13 l81 -3 3 -65z m1098 23 c9 -35 -17 -95 -49 -113 -24 -13 -30
-13 -54 0 -32 18 -58 78 -49 113 12 51 139 52 152 0z m-3740 -45 c-1 -40 -5
-72 -9 -71 -29 7 -32 11 -19 32 6 11 12 30 12 41 0 11 -6 29 -12 40 -11 17
-10 22 2 30 23 14 26 5 26 -72z m94 11 c3 -24 9 -49 13 -55 4 -7 1 -17 -7 -23
-19 -16 -45 14 -28 31 15 15 16 75 1 84 -6 3 -15 1 -19 -6 -5 -9 -9 -9 -14 -1
-12 19 3 31 27 22 17 -6 23 -19 27 -52z m4680 -69 c49 0 80 -4 80 -10 0 -7
-30 -10 -82 -8 l-83 3 -1 75 -1 75 4 -67 4 -68 79 0z m-6160 62 l0 -59 -35 -1
c-40 -2 -51 13 -41 53 5 18 13 25 31 25 18 0 25 5 25 20 0 11 5 20 10 20 6 0
10 -26 10 -58z m1820 -2 c0 -33 -4 -60 -10 -60 -6 0 -10 27 -10 60 0 33 4 60
10 60 6 0 10 -27 10 -60z m27 -32 c-2 -18 -4 -4 -4 32 0 36 2 50 4 33 2 -18 2
-48 0 -65z m1473 82 c0 -5 -4 -10 -10 -10 -5 0 -10 5 -10 10 0 6 5 10 10 10 6
0 10 -4 10 -10z m1080 0 c0 -5 -4 -10 -10 -10 -5 0 -10 5 -10 10 0 6 5 10 10
10 6 0 10 -4 10 -10z m1250 0 c0 -5 -4 -10 -10 -10 -5 0 -10 5 -10 10 0 6 5
10 10 10 6 0 10 -4 10 -10z m930 0 c0 -5 -4 -10 -10 -10 -5 0 -10 5 -10 10 0
6 5 10 10 10 6 0 10 -4 10 -10z m130 -9 c0 -13 8 -21 23 -23 18 -2 23 -10 25
-40 2 -22 -1 -38 -7 -38 -6 0 -11 16 -11 36 0 45 -24 42 -28 -4 -6 -56 -22
-34 -22 28 0 33 4 60 10 60 6 0 10 -9 10 -19z m-7115 -68 l-29 -28 24 28 23
27 -23 28 -24 27 29 -27 30 -28 -30 -27z m215 68 c0 -5 -12 -11 -27 -13 -24
-3 -28 -8 -28 -33 0 -25 4 -30 28 -33 15 -2 27 -8 27 -13 0 -13 -54 -11 -68 3
-18 18 -15 75 6 87 22 13 62 14 62 2z m860 -46 c0 -30 -4 -55 -10 -55 -5 0
-10 25 -10 55 0 30 5 55 10 55 6 0 10 -25 10 -55z m1019 37 c12 -23 -4 -52
-29 -52 -13 0 -20 -7 -20 -20 0 -11 -4 -20 -10 -20 -5 0 -10 25 -10 55 0 54 0
55 30 55 18 0 33 -7 39 -18z m1450 -34 c20 -49 20 -82 0 -45 -6 9 -19 17 -29
17 -10 0 -23 -8 -29 -17 -5 -10 -12 -16 -14 -13 -7 7 33 110 42 110 5 0 18
-23 30 -52z m1070 34 c12 -23 -4 -52 -29 -52 -13 0 -20 -7 -20 -20 0 -11 -4
-20 -10 -20 -5 0 -10 25 -10 55 0 54 0 55 30 55 18 0 33 -7 39 -18z m1101 7
c0 -5 -5 -7 -10 -4 -6 4 -19 4 -28 0 -14 -5 -11 -11 18 -35 29 -24 32 -30 21
-44 -14 -17 -61 -22 -61 -7 0 4 11 6 25 3 18 -3 25 0 25 12 0 9 -11 22 -25 28
-24 11 -33 37 -18 51 10 11 53 8 53 -4z m905 -29 c-27 -28 -30 -29 -47 -13
-17 15 -19 15 -38 -2 -11 -10 -20 -14 -20 -8 0 5 9 18 20 28 19 17 21 17 38 2
17 -16 20 -15 42 8 13 14 26 23 28 20 3 -3 -7 -19 -23 -35z m165 -15 c0 -30
-4 -55 -10 -55 -5 0 -10 25 -10 55 0 30 5 55 10 55 6 0 10 -25 10 -55z m-3964
30 c9 -8 11 -15 5 -15 -15 0 -14 -57 2 -64 6 -3 3 -5 -8 -3 -14 2 -22 12 -25
37 -6 34 -3 60 7 60 2 0 11 -7 19 -15z m860 0 c9 -8 11 -15 5 -15 -15 0 -14
-57 2 -64 6 -3 3 -5 -8 -3 -14 1 -21 11 -23 33 -3 27 -7 31 -32 32 -30 1 -44
-17 -33 -44 3 -9 13 -14 24 -11 11 3 19 1 19 -5 0 -5 -12 -8 -27 -6 -22 2 -29
9 -31 32 -4 33 10 46 51 46 15 0 27 5 27 10 0 14 9 12 26 -5z m1320 0 c9 -8
11 -15 5 -15 -15 0 -14 -57 2 -63 7 -4 6 -6 -4 -6 -18 -1 -29 18 -29 48 0 13
-7 18 -27 17 -23 -1 -28 -6 -28 -26 0 -20 5 -25 23 -24 14 0 19 -3 13 -9 -13
-13 -42 -5 -55 16 -16 25 4 51 43 55 17 2 31 7 31 13 0 13 9 11 26 -6z m1115
-5 c12 0 24 -12 32 -32 l14 -33 7 33 c4 17 12 32 18 32 6 0 7 -8 3 -17 -4 -10
-12 -31 -17 -48 -13 -36 -27 -55 -41 -55 -7 0 -7 4 1 12 7 7 12 20 12 30 0 27
-22 68 -37 68 -17 0 -18 -56 0 -63 7 -3 5 -6 -5 -6 -14 -1 -18 7 -18 34 0 19
-5 35 -10 35 -6 0 -5 6 2 14 7 8 15 10 16 5 2 -5 12 -9 23 -9z m1095 5 c9 -8
11 -15 5 -15 -15 0 -14 -57 2 -63 7 -3 5 -6 -5 -6 -16 -1 -25 17 -29 59 -4 42
3 49 27 25z m-6902 -27 c15 -24 -3 -52 -37 -56 -33 -4 -53 28 -37 59 14 25 58
23 74 -3z m184 0 c3 -13 -3 -18 -22 -18 -14 0 -26 -4 -26 -10 0 -5 9 -10 20
-10 11 0 20 -4 20 -10 0 -5 -11 -10 -25 -10 -32 0 -50 32 -35 61 14 25 63 23
68 -3z m652 13 c0 -5 -9 -7 -20 -4 -26 7 -26 -14 1 -22 26 -9 21 -39 -9 -43
-12 -2 -22 1 -22 7 0 6 7 8 15 5 20 -8 19 13 -2 24 -21 12 -10 42 17 42 11 0
20 -4 20 -9z m70 0 c0 -5 -9 -7 -20 -4 -27 7 -26 -11 2 -29 12 -8 18 -19 14
-26 -8 -14 -56 -16 -56 -3 0 5 9 7 20 4 27 -7 26 11 -2 29 -12 8 -18 19 -14
26 8 14 56 16 56 3z m32 -23 c4 -46 31 -44 39 2 l6 35 2 -40 c1 -37 -1 -41
-26 -43 -31 -2 -43 11 -43 51 0 38 18 34 22 -5z m136 10 c3 -14 -3 -18 -27
-18 -24 0 -29 -4 -24 -16 3 -9 13 -14 24 -11 11 3 19 1 19 -5 0 -5 -12 -8 -27
-6 -29 3 -41 32 -29 64 8 21 60 14 64 -8z m62 12 c0 -5 -7 -7 -15 -4 -23 9
-18 -12 7 -28 12 -8 18 -19 14 -26 -8 -14 -56 -16 -56 -3 0 5 9 7 20 4 26 -7
25 4 -2 26 -12 10 -18 23 -14 29 9 14 46 16 46 2z m693 -57 c12 -11 27 10 27
38 0 16 5 29 10 29 6 0 10 -18 10 -41 0 -39 -1 -40 -32 -37 -31 3 -33 6 -35
43 -2 40 -2 40 6 7 5 -18 11 -35 14 -39z m225 60 c-13 -3 -18 -15 -18 -39 0
-19 -4 -34 -10 -34 -5 0 -10 18 -10 40 0 37 2 40 28 39 16 -1 20 -3 10 -6z
m80 -15 c3 -14 -3 -18 -23 -18 -17 0 -25 -5 -22 -12 2 -7 13 -13 25 -12 12 0
19 -3 16 -8 -15 -23 -64 1 -64 32 0 39 61 54 68 18z m92 -38 c0 -33 -4 -60
-10 -60 -5 0 -10 9 -10 20 0 13 -7 20 -18 20 -22 0 -42 19 -42 40 0 24 21 40
52 40 28 0 28 -1 28 -60z m43 -7 c12 -11 27 10 27 38 0 16 5 29 10 29 6 0 10
-18 10 -41 0 -39 -1 -40 -32 -37 -31 3 -33 6 -35 43 -2 40 -2 40 6 7 5 -18 11
-35 14 -39z m125 45 c3 -14 -3 -18 -23 -18 -17 0 -25 -5 -22 -12 2 -7 13 -13
25 -12 12 0 19 -3 16 -8 -15 -23 -64 1 -64 32 0 39 61 54 68 18z m72 13 c0 -5
-9 -7 -20 -4 -26 7 -26 -14 1 -22 26 -9 21 -39 -9 -43 -12 -2 -22 1 -22 7 0 6
7 8 15 5 20 -8 19 13 -2 24 -21 12 -10 42 17 42 11 0 20 -4 20 -9z m120 0 c0
-5 -9 -7 -20 -4 -26 7 -26 -14 1 -22 26 -9 21 -39 -9 -43 -12 -2 -22 1 -22 7
0 6 7 8 15 5 20 -8 19 13 -2 24 -21 12 -10 42 17 42 11 0 20 -4 20 -9z m817
-53 c-2 -13 -4 -3 -4 22 0 25 2 35 4 23 2 -13 2 -33 0 -45z m101 25 c3 -28 -1
-33 -23 -39 -29 -7 -55 10 -55 35 0 25 22 42 50 39 20 -2 26 -9 28 -35z m84
25 c11 -18 10 -68 -2 -68 -5 0 -10 16 -10 35 0 43 -27 49 -36 8 -10 -48 -12
-49 -13 -8 -1 37 1 41 26 43 15 1 30 -4 35 -10z m78 3 c0 -5 -9 -7 -20 -4 -27
7 -26 -11 2 -29 12 -8 18 -19 14 -26 -8 -14 -56 -16 -56 -3 0 5 9 7 20 4 27
-7 26 11 -2 29 -12 8 -18 19 -14 26 8 14 56 16 56 3z m698 2 c-13 -3 -18 -15
-18 -39 0 -19 -4 -34 -10 -34 -5 0 -10 18 -10 40 0 37 2 40 28 39 16 -1 20 -3
10 -6z m80 -2 c18 -11 11 -51 -10 -65 -35 -22 -74 27 -48 59 14 17 38 19 58 6z
m38 -97 c-3 -8 -13 -14 -23 -14 -17 1 -17 1 0 11 12 7 17 24 19 62 l2 52 3
-49 c2 -27 2 -55 -1 -62z m92 84 c3 -14 -3 -18 -23 -18 -17 0 -25 -5 -22 -12
2 -7 13 -13 25 -12 12 0 19 -3 16 -8 -15 -23 -64 1 -64 32 0 39 61 54 68 18z
m192 12 c0 -5 -7 -7 -15 -4 -23 9 -18 -12 7 -28 12 -8 18 -19 14 -26 -8 -14
-56 -16 -56 -3 0 5 9 7 20 4 26 -7 25 4 -2 26 -12 10 -18 23 -14 29 9 14 46
16 46 2z m728 -12 c3 -14 -3 -18 -23 -18 -17 0 -25 -5 -22 -12 2 -7 13 -13 25
-12 12 0 19 -3 16 -8 -15 -23 -64 1 -64 32 0 39 61 54 68 18z m82 14 c0 -5
-10 -8 -22 -8 -18 1 -23 -5 -23 -24 0 -19 5 -25 22 -24 12 0 20 -3 17 -8 -8
-12 -38 -10 -52 4 -27 27 -6 68 35 68 13 0 23 -4 23 -8z m33 -59 c12 -11 27
10 27 38 0 16 5 29 10 29 6 0 10 -18 10 -41 0 -39 -1 -40 -32 -37 -31 3 -33 6
-35 43 -2 40 -2 40 6 7 5 -18 11 -35 14 -39z m99 58 c-8 -5 -18 -24 -22 -42
l-8 -34 -1 43 c-1 37 2 42 22 42 16 0 18 -3 9 -9z m38 -31 c0 -22 -4 -40 -10
-40 -5 0 -10 18 -10 40 0 22 5 40 10 40 6 0 10 -18 10 -40z m822 28 c11 -18
10 -68 -1 -68 -6 0 -11 15 -13 33 -4 45 -31 43 -39 -3 l-6 -35 -2 40 c-1 37 1
41 26 43 15 1 30 -4 35 -10z m68 2 c0 -5 -6 -7 -14 -4 -8 3 -17 1 -20 -5 -4
-5 3 -13 14 -16 27 -9 22 -39 -8 -43 -12 -2 -22 1 -22 6 0 6 9 8 20 5 11 -3
20 -1 20 5 0 6 -9 14 -20 17 -20 6 -26 25 -13 38 10 11 43 8 43 -3z m40 -30
c0 -22 -4 -40 -10 -40 -5 0 -10 18 -10 40 0 22 5 40 10 40 6 0 10 -18 10 -40z
m90 -8 c0 -26 -5 -53 -12 -60 -14 -14 -58 -16 -58 -4 0 5 10 8 21 8 12 -1 24
5 26 12 3 7 -3 12 -14 12 -23 0 -43 18 -43 40 0 24 21 40 52 40 27 0 28 -2 28
-48z m210 38 c0 -5 -6 -7 -14 -4 -8 3 -17 1 -20 -5 -4 -5 3 -13 14 -16 27 -9
22 -39 -8 -43 -12 -2 -22 1 -22 6 0 6 9 8 20 5 11 -3 20 -1 20 5 0 6 -9 14
-20 17 -20 6 -26 25 -13 38 10 11 43 8 43 -3z m-725 -610 l0 -55 -57 -3 -58
-3 0 54 c0 29 3 57 7 61 4 4 30 6 58 4 l50 -3 0 -55z m-6215 19 c0 -5 -7 -9
-15 -9 -15 0 -20 12 -9 23 8 8 24 -1 24 -14z m50 -49 c0 -56 -3 -70 -15 -70
-12 0 -15 14 -15 70 0 56 3 70 15 70 12 0 15 -14 15 -70z m3159 -2 c-2 -58 -3
-65 -8 -33 -6 39 -3 105 5 105 2 0 3 -33 3 -72z m1871 51 c0 -5 -7 -9 -15 -9
-15 0 -20 12 -9 23 8 8 24 -1 24 -14z m608 2 c3 -10 -4 -11 -27 -6 -24 5 -31
3 -31 -8 0 -9 6 -18 13 -21 10 -5 10 -7 0 -12 -7 -3 -13 -21 -13 -40 0 -22 -5
-34 -14 -34 -20 0 -26 78 -9 113 12 23 19 27 45 24 18 -2 34 -9 36 -16z
m-5728 -1 c0 -5 -11 -10 -25 -10 -18 0 -25 -5 -25 -20 0 -13 7 -20 20 -20 11
0 20 -4 20 -10 0 -5 -9 -10 -20 -10 -15 0 -20 -7 -20 -25 0 -16 -6 -25 -15
-25 -12 0 -15 14 -15 65 l0 65 40 0 c22 0 40 -4 40 -10z m3130 1 c-33 -9 -40
-41 -8 -42 l23 0 -23 -10 c-32 -12 -26 -51 8 -60 23 -6 22 -7 -7 -8 l-33 -1 0
65 0 65 33 -1 c29 -1 30 -2 7 -8z m838 -66 c16 -44 17 -54 6 -37 -21 28 -64
30 -71 2 -3 -11 -9 -20 -13 -20 -5 0 1 24 11 53 11 28 22 58 25 66 7 21 18 4
42 -64z m495 68 c-7 -2 -19 -2 -25 0 -7 3 -2 5 12 5 14 0 19 -2 13 -5z m1462
-3 c-3 -5 -10 -10 -16 -10 -5 0 -9 5 -9 10 0 6 7 10 16 10 8 0 12 -4 9 -10z
m-755 -14 c0 -8 6 -17 13 -20 10 -5 10 -7 0 -12 -15 -7 -17 -54 -3 -54 6 0 10
-5 10 -11 0 -6 -10 -9 -22 -7 -18 2 -24 12 -29 43 -7 40 3 75 21 75 6 0 10 -6
10 -14z m937 -13 c-15 -4 -17 -13 -15 -51 3 -47 3 -47 43 -50 29 -3 43 1 53
15 13 17 14 17 10 -2 -2 -16 -12 -21 -46 -23 -56 -4 -72 10 -72 63 0 46 5 56
29 54 12 -1 12 -2 -2 -6z m-6067 -48 c0 -33 -4 -45 -15 -45 -11 0 -15 12 -15
45 0 33 4 45 15 45 11 0 15 -12 15 -45z m138 33 c9 -9 15 -9 24 0 14 14 58 16
58 3 0 -5 -10 -11 -22 -14 -22 -3 -22 -4 -3 -12 43 -18 35 -55 -11 -55 -34 0
-39 18 -7 23 27 4 27 4 6 12 -13 4 -23 12 -23 18 0 7 -4 7 -12 -1 -7 -7 -22
-12 -35 -12 -13 0 -23 -5 -23 -11 0 -7 10 -9 25 -7 17 4 25 1 25 -8 0 -17 -51
-19 -68 -2 -28 28 -7 78 33 78 12 0 26 -5 33 -12z m3030 -2 c-10 -7 -18 -23
-18 -34 0 -12 8 -26 18 -32 16 -11 16 -11 -1 -6 -10 3 -21 6 -23 6 -2 0 -4 13
-4 28 0 29 16 52 35 52 5 0 2 -7 -7 -14z m109 -63 c9 -7 12 -13 7 -13 -20 0
-34 25 -32 60 l1 35 4 -35 c2 -19 11 -41 20 -47z m40 10 c-2 -16 -4 -5 -4 22
0 28 2 40 4 28 2 -13 2 -35 0 -50z m56 17 c9 -25 9 -25 28 15 10 22 16 29 13
15 -4 -14 -12 -36 -20 -50 l-13 -25 -15 37 c-9 21 -16 43 -15 50 0 9 3 8 6 -2
3 -8 10 -26 16 -40z m121 44 c28 -11 18 -34 -14 -34 -36 0 -38 -13 -8 -34 25
-18 17 -21 -13 -6 -10 6 -19 20 -19 30 0 16 7 20 33 20 30 1 31 1 13 15 -21
16 -18 19 8 9z m58 -41 c-4 -55 -12 -54 -12 2 0 27 3 45 7 41 4 -4 6 -23 5
-43z m78 36 l-25 -10 28 -21 c22 -16 25 -23 16 -34 -13 -16 -35 -18 -43 -5 -4
5 2 7 13 4 30 -8 33 13 5 32 -20 13 -23 19 -13 31 6 8 19 14 28 13 10 0 6 -4
-9 -10z m104 5 c28 -11 18 -34 -14 -34 -36 0 -38 -13 -8 -34 25 -18 17 -21
-13 -6 -10 6 -19 20 -19 30 0 16 7 20 33 20 30 1 31 1 13 15 -21 16 -18 19 8
9z m253 -91 c-2 -21 -4 -6 -4 32 0 39 2 55 4 38 2 -18 2 -50 0 -70z m47 91
c30 -11 14 -84 -18 -84 -5 0 -2 6 8 13 23 17 18 63 -6 61 -10 -1 -15 2 -12 7
6 11 8 11 28 3z m59 -31 c-3 -7 0 -20 7 -28 8 -9 9 -15 2 -15 -6 0 -13 -12
-15 -27 -2 -16 -5 4 -5 42 -1 44 2 65 7 56 5 -8 7 -20 4 -28z m55 25 c23 -23
8 -78 -22 -78 -5 0 -2 8 7 18 22 24 21 41 0 58 -10 7 -13 14 -7 14 5 0 15 -5
22 -12z m456 3 c4 -5 -3 -7 -14 -4 -23 6 -26 13 -6 13 8 0 17 -4 20 -9z m93 3
c-3 -3 -12 -4 -19 -1 -8 3 -5 6 6 6 11 1 17 -2 13 -5z m76 -1 c-7 -2 -19 -2
-25 0 -7 3 -2 5 12 5 14 0 19 -2 13 -5z m214 -25 l10 -33 7 33 c4 17 14 32 22
32 18 0 17 -1 -2 -50 -25 -61 -43 -54 -68 28 -5 16 -3 22 7 22 8 0 18 -15 24
-32z m93 -13 c0 -33 -4 -45 -15 -45 -11 0 -15 12 -15 45 0 33 4 45 15 45 11 0
15 -12 15 -45z m160 30 c16 -19 4 -35 -26 -35 -13 0 -24 -5 -24 -11 0 -7 10
-9 25 -6 16 3 24 0 22 -7 -5 -16 -46 -20 -63 -6 -17 15 -18 52 -2 68 16 16 53
15 68 -3z m130 6 c0 -5 -10 -11 -22 -13 -15 -2 -23 -10 -23 -23 0 -13 8 -21
23 -23 30 -4 28 -22 -2 -22 -48 0 -70 57 -32 82 16 11 56 10 56 -1z m101 -12
c17 -33 -3 -69 -39 -69 -33 0 -52 16 -52 45 0 29 19 45 52 45 18 0 31 -7 39
-21z m107 -26 c2 -34 0 -43 -12 -43 -12 0 -16 10 -16 36 0 45 -24 42 -28 -4
-2 -20 -9 -32 -18 -32 -10 0 -14 13 -14 46 l0 45 43 -3 c42 -3 42 -3 45 -45z
m112 2 c0 -33 -4 -45 -15 -45 -11 0 -15 12 -15 45 0 33 4 45 15 45 11 0 15
-12 15 -45z m110 -1 c0 -64 -13 -84 -55 -84 -19 0 -35 5 -35 10 0 6 11 10 24
10 35 0 42 18 10 22 -37 4 -51 29 -36 62 10 22 18 26 52 26 l40 0 0 -46z m90
0 c0 -55 -14 -84 -40 -84 -23 0 -27 15 -5 24 11 4 15 20 15 56 0 38 4 50 15
50 11 0 15 -12 15 -46z m75 36 c3 -6 -4 -10 -17 -10 l-23 0 24 -19 c32 -24 22
-51 -19 -51 -16 0 -30 5 -30 10 0 6 10 10 23 10 l22 0 -24 19 c-16 12 -22 24
-18 35 7 18 52 22 62 6z m11845 -5 c0 -8 -4 -15 -9 -15 -13 0 -22 16 -14 24
11 11 23 6 23 -9z m70 0 c0 -8 -4 -15 -10 -15 -5 0 -10 7 -10 15 0 8 5 15 10
15 6 0 10 -7 10 -15z m71 2 c-1 -12 -15 -9 -19 4 -3 6 1 10 8 8 6 -3 11 -8 11
-12z m-14138 -24 c-7 -2 -19 -2 -25 0 -7 3 -2 5 12 5 14 0 19 -2 13 -5z m785
-10 c-10 -2 -26 -2 -35 0 -10 3 -2 5 17 5 19 0 27 -2 18 -5z m682 -33 c0 -5
-4 -10 -10 -10 -5 0 -10 5 -10 10 0 6 5 10 10 10 6 0 10 -4 10 -10z m560 0 c0
-5 -7 -10 -15 -10 -8 0 -15 5 -15 10 0 6 7 10 15 10 8 0 15 -4 15 -10z m-1417
-7 c-7 -2 -21 -2 -30 0 -10 3 -4 5 12 5 17 0 24 -2 18 -5z m174 1 c-3 -3 -12
-4 -19 -1 -8 3 -5 6 6 6 11 1 17 -2 13 -5z m-4883 -451 c-7 -22 -17 -29 -44
-31 -42 -4 -59 -17 -42 -34 18 -18 15 -38 -5 -38 -15 0 -18 10 -18 70 0 60 3
70 18 70 18 0 24 -25 7 -35 -20 -13 -9 -25 23 -25 42 0 49 7 34 31 -10 16 -9
21 3 29 23 14 36 -5 24 -37z m2736 34 c-49 -24 -33 -97 21 -97 47 0 65 67 27
94 -12 9 -17 16 -11 16 26 0 45 -33 40 -71 -3 -26 0 -42 12 -55 15 -18 15 -18
-4 -2 -13 11 -30 15 -43 11 -37 -9 -69 5 -80 35 -14 40 10 82 48 82 8 0 4 -6
-10 -13z m-2360 -7 c0 -5 -7 -10 -15 -10 -8 0 -15 5 -15 10 0 6 7 10 15 10 8
0 15 -4 15 -10z m2073 -42 l32 -1 -32 -4 c-29 -4 -33 -8 -35 -36 l-1 -32 -4
33 c-4 27 -9 32 -31 33 l-27 2 28 4 c21 3 27 10 28 31 l2 27 4 -27 c4 -23 10
-28 36 -30z m-2201 -2 c14 -21 9 -66 -7 -66 -10 0 -15 10 -15 30 0 17 -4 30
-10 30 -5 0 -10 -13 -10 -30 0 -20 -5 -30 -15 -30 -10 0 -15 10 -15 30 0 17
-4 30 -10 30 -5 0 -10 -13 -10 -30 0 -20 -5 -30 -15 -30 -11 0 -15 11 -15 40
l0 40 58 -1 c31 -1 60 -7 64 -13z m86 -29 c3 -38 3 -38 -30 -35 -41 4 -47 38
-8 49 24 7 24 7 3 8 -13 1 -23 6 -23 12 0 6 12 9 28 7 23 -3 27 -8 30 -41z
m42 3 c0 -29 -4 -40 -15 -40 -11 0 -15 11 -15 40 0 29 4 40 15 40 11 0 15 -11
15 -40z m88 -2 c2 -22 -1 -38 -7 -38 -6 0 -11 14 -11 30 0 20 -5 30 -15 30
-10 0 -15 -10 -15 -30 0 -16 -4 -30 -10 -30 -5 0 -10 18 -10 41 0 39 1 40 33
37 29 -3 32 -6 35 -40z m1472 29 c0 -2 -8 -11 -18 -21 -18 -15 -20 -15 -37 4
-18 20 -18 20 18 20 21 0 37 -2 37 -3z m15654 -7 c15 -5 33 -25 42 -43 14 -30
14 -37 0 -70 -19 -46 -55 -62 -103 -46 -32 10 -53 34 -53 61 0 7 6 2 13 -12 7
-14 25 -31 40 -38 57 -27 122 38 95 95 -19 41 -60 58 -95 40 -16 -7 -27 -19
-25 -25 1 -7 -7 -12 -18 -12 -14 0 -20 7 -20 21 0 11 4 18 9 15 5 -3 24 1 42
9 41 17 41 17 73 5z m-13614 -30 c0 -5 -4 -10 -10 -10 -5 0 -10 5 -10 10 0 6
5 10 10 10 6 0 10 -4 10 -10z m110 -9 c0 -13 8 -21 23 -23 18 -2 23 -10 25
-40 2 -22 -1 -38 -7 -38 -6 0 -11 14 -11 30 0 20 -5 30 -15 30 -10 0 -15 -10
-15 -30 0 -16 -4 -30 -10 -30 -6 0 -10 27 -10 60 0 33 4 60 10 60 6 0 10 -9
10 -19z m873 12 c-7 -2 -13 -11 -13 -19 0 -8 6 -14 13 -14 9 0 9 -2 0 -8 -6
-4 -13 -23 -15 -42 l-3 -35 -6 42 c-5 49 4 83 23 82 10 0 10 -2 1 -6z m-1133
-25 l0 -22 16 22 c8 12 22 22 31 22 13 0 12 -5 -6 -24 l-23 -25 22 -30 c16
-24 18 -31 7 -31 -8 0 -22 10 -30 23 l-16 22 0 -22 c-1 -13 -5 -23 -11 -23 -5
0 -10 25 -10 55 0 30 5 55 10 55 6 0 10 -10 10 -22z m540 -33 c0 -30 -4 -55
-10 -55 -5 0 -10 18 -10 39 0 22 -5 42 -12 44 -10 4 -9 8 2 16 26 18 30 12 30
-44z m89 41 c17 -20 10 -77 -11 -90 -26 -16 -52 4 -56 43 -4 36 12 61 38 61
10 0 23 -6 29 -14z m89 2 c26 -26 7 -98 -26 -98 -27 0 -42 20 -42 55 0 34 15
55 40 55 9 0 21 -5 28 -12z m92 2 c0 -5 -9 -10 -19 -10 -11 0 -23 -4 -26 -10
-3 -5 2 -10 12 -10 11 0 24 -5 30 -11 7 -7 14 -2 21 21 10 26 16 31 39 28 25
-3 28 -8 31 -41 2 -21 -2 -45 -9 -53 -16 -19 -46 -18 -58 4 -9 16 -11 16 -23
-1 -9 -12 -23 -18 -39 -15 -20 2 -25 9 -27 41 -2 21 2 45 9 53 13 16 59 19 59
4z m170 -24 c0 -19 6 -36 12 -38 9 -3 7 -10 -6 -24 -14 -13 -21 -15 -24 -6 -2
6 -15 12 -28 12 -31 0 -30 13 2 56 33 43 44 43 44 0z m929 -4 c-12 -5 -11 -59
1 -65 6 -3 5 -4 -2 -3 -13 3 -27 61 -20 83 3 9 7 9 17 0 7 -7 9 -13 4 -15z
m10448 -49 c-2 -16 -4 -3 -4 27 0 30 2 43 4 28 2 -16 2 -40 0 -55z m153 68 c0
-4 -11 -6 -25 -3 -14 2 -25 6 -25 8 0 2 11 4 25 4 14 0 25 -4 25 -9z m58 -43
l-1 -53 -6 45 c-6 43 -5 60 5 60 2 0 3 -24 2 -52z m142 48 c0 -2 -9 -6 -20 -9
-11 -3 -18 -1 -14 4 5 9 34 13 34 5z m77 -16 c4 -12 3 -13 -5 -1 -6 8 -17 11
-27 8 -10 -4 -14 -3 -10 4 9 14 37 7 42 -11z m962 -28 c15 -12 14 -13 -2 -8
-10 3 -21 6 -23 6 -2 0 -3 12 -3 28 1 20 3 22 6 7 3 -11 13 -26 22 -33z m151
28 c0 -13 7 -20 20 -20 13 0 20 7 20 20 0 11 5 20 10 20 6 0 10 -22 10 -50 0
-27 -4 -50 -10 -50 -5 0 -10 9 -10 20 0 13 -7 20 -20 20 -13 0 -20 -7 -20 -20
0 -11 -4 -20 -10 -20 -5 0 -10 23 -10 50 0 28 5 50 10 50 6 0 10 -9 10 -20z
m90 10 c0 -5 -4 -10 -10 -10 -5 0 -10 5 -10 10 0 6 5 10 10 10 6 0 10 -4 10
-10z m-14213 -33 c22 -32 23 -34 6 -77 -16 -40 -18 -42 -24 -19 -4 13 -8 42
-9 64 l-2 40 -17 -55 c-9 -30 -20 -50 -23 -44 -4 5 -3 16 3 24 5 8 9 25 9 38
0 22 20 62 30 62 3 0 15 -15 27 -33z m14315 21 c3 -7 18 -11 37 -10 19 1 40
-3 47 -9 10 -8 14 -8 14 0 0 6 17 11 40 11 29 0 40 -4 40 -15 0 -8 4 -15 9
-15 5 0 11 7 15 15 3 8 10 15 15 15 5 0 1 -22 -11 -50 -12 -28 -27 -50 -36
-50 -11 0 -12 3 -3 14 8 9 8 21 0 45 -14 39 -38 40 -45 1 -7 -32 -24 -41 -24
-13 0 16 -1 16 -12 0 -10 -13 -25 -16 -58 -15 -39 3 -45 6 -50 28 -3 14 -12
26 -22 26 -22 2 -23 -5 -1 -21 9 -7 13 -17 9 -23 -9 -15 -46 -16 -46 -1 0 5 5
7 10 4 6 -3 10 -1 10 4 0 6 -4 11 -10 11 -5 0 -10 9 -10 20 0 16 7 20 30 20
17 0 30 5 30 10 0 14 18 12 22 -2z m-13984 -9 c-11 -6 -18 -22 -18 -39 0 -17
-4 -30 -10 -30 -5 0 -10 18 -10 40 0 37 2 40 28 40 23 -1 24 -2 10 -11z m42
-29 c0 -22 -4 -40 -10 -40 -5 0 -10 18 -10 40 0 22 5 40 10 40 6 0 10 -18 10
-40z m70 30 c0 -5 -8 -10 -17 -10 -15 0 -14 -3 4 -15 13 -9 20 -22 17 -30 -7
-17 -64 -21 -64 -5 0 6 10 10 22 10 l22 0 -21 15 c-13 9 -20 22 -17 30 7 17
54 21 54 5z m178 -32 c2 -22 -1 -38 -7 -38 -6 0 -11 14 -11 30 0 20 -5 30 -15
30 -10 0 -15 -10 -15 -30 0 -16 -4 -30 -10 -30 -5 0 -10 18 -10 41 0 39 1 40
33 37 29 -3 32 -6 35 -40z m90 0 c3 -37 3 -38 -32 -38 -30 0 -36 4 -36 20 0
12 10 24 23 30 l22 9 -23 0 c-14 1 -20 5 -17 12 4 5 19 9 33 7 23 -3 27 -8 30
-40z m669 -20 c-2 -13 -4 -3 -4 22 0 25 2 35 4 23 2 -13 2 -33 0 -45z m40 0
c-2 -13 -4 -3 -4 22 0 25 2 35 4 23 2 -13 2 -33 0 -45z m71 55 c-24 -6 -23
-17 5 -36 17 -11 19 -18 11 -27 -7 -7 -20 -10 -30 -7 -16 4 -15 5 4 6 28 1 28
8 0 30 -23 19 -17 42 10 40 15 -1 15 -2 0 -6z m65 0 c-7 -2 -19 -2 -25 0 -7 3
-2 5 12 5 14 0 19 -2 13 -5z m127 3 c0 -2 -11 -6 -25 -8 -13 -3 -22 -1 -19 3
5 9 44 13 44 5z m84 -18 c8 -13 8 -23 0 -35 -14 -22 -56 -24 -61 -3 -4 12 -3
12 5 2 14 -21 47 -10 50 16 2 15 -4 25 -20 32 -17 7 -18 9 -4 7 10 -1 24 -10
30 -19z m132 -21 l1 -37 -4 36 c-6 47 -35 44 -44 -6 l-6 -35 -2 37 c0 20 -7
38 -13 41 -7 2 5 4 27 3 39 -1 40 -2 41 -39z m41 -19 c-2 -13 -4 -3 -4 22 0
25 2 35 4 23 2 -13 2 -33 0 -45z m49 17 c1 -28 0 -31 -3 -10 -2 17 -12 36 -21
43 -16 13 -15 14 3 10 16 -2 20 -12 21 -43z m50 21 c3 -14 4 -33 1 -43 -3 -10
-5 -4 -6 14 -1 19 -8 36 -18 42 -17 10 -17 10 -1 11 10 0 20 -10 24 -24z
m10512 7 c-10 -2 -18 -9 -18 -15 0 -6 -3 -9 -6 -5 -10 10 6 27 24 26 15 -1 15
-2 0 -6z m95 0 c3 -5 -5 -8 -18 -8 -13 0 -21 3 -18 8 2 4 10 7 18 7 8 0 16 -3
18 -7z m224 1 c-3 -3 -12 -4 -19 -1 -8 3 -5 6 6 6 11 1 17 -2 13 -5z m48 -12
c-3 -3 -11 0 -18 7 -9 10 -8 11 6 5 10 -3 15 -9 12 -12z m75 3 c0 -2 -6 -5
-13 -8 -8 -3 -14 1 -14 8 0 7 6 11 14 8 7 -3 13 -6 13 -8z m217 9 c-3 -3 -12
-4 -19 -1 -8 3 -5 6 6 6 11 1 17 -2 13 -5z m60 0 c-3 -3 -12 -4 -19 -1 -8 3
-5 6 6 6 11 1 17 -2 13 -5z m50 0 c-3 -3 -12 -4 -19 -1 -8 3 -5 6 6 6 11 1 17
-2 13 -5z m273 2 c0 -2 -9 -6 -20 -9 -11 -3 -18 -1 -14 4 5 9 34 13 34 5z
m620 -31 c0 -19 -4 -35 -10 -35 -5 0 -10 16 -10 35 0 19 5 35 10 35 6 0 10
-16 10 -35z m-1383 -7 c-3 -8 -6 -5 -6 6 -1 11 2 17 5 13 3 -3 4 -12 1 -19z
m703 7 c0 -2 -13 -5 -30 -7 -19 -3 -30 0 -30 7 0 7 11 10 30 7 17 -2 30 -5 30
-7z m70 5 c0 -5 -15 -9 -32 -9 l-33 1 30 8 c17 4 31 8 33 9 1 0 2 -3 2 -9z
m-393 -6 c-3 -3 -12 -4 -19 -1 -8 3 -5 6 6 6 11 1 17 -2 13 -5z m449 -16 l19
-23 -25 20 c-14 11 -27 21 -29 22 -2 2 0 3 6 3 5 0 18 -10 29 -22z m-1106 -11
c11 -5 9 -6 -4 -4 -11 1 -21 9 -23 17 -3 10 -2 11 4 4 4 -6 15 -14 23 -17z
m848 -2 c-3 -3 -9 2 -12 12 -6 14 -5 15 5 6 7 -7 10 -15 7 -18z m45 10 c-3 -9
-8 -14 -10 -11 -3 3 -2 9 2 15 9 16 15 13 8 -4z m-11777 -13 c-10 -2 -22 0
-28 6 -6 6 0 7 19 4 21 -5 23 -7 9 -10z m10977 6 c-2 -5 -10 -8 -18 -8 -8 0
-16 3 -18 8 -3 4 5 7 18 7 13 0 21 -3 18 -7z m292 2 c-3 -5 -14 -10 -23 -9
-14 0 -13 2 3 9 27 11 27 11 20 0z m68 -2 c-2 -5 -10 -8 -18 -8 -8 0 -16 3
-18 8 -3 4 5 7 18 7 13 0 21 -3 18 -7z m578 -6 c-7 -2 -18 1 -23 6 -8 8 -4 9
13 5 13 -4 18 -8 10 -11z m-714 2 c-3 -3 -12 -4 -19 -1 -8 3 -5 6 6 6 11 1 17
-2 13 -5z m330 0 c-3 -3 -12 -4 -19 -1 -8 3 -5 6 6 6 11 1 17 -2 13 -5z m70 0
c-3 -3 -12 -4 -19 -1 -8 3 -5 6 6 6 11 1 17 -2 13 -5z m246 -1 c-7 -2 -19 -2
-25 0 -7 3 -2 5 12 5 14 0 19 -2 13 -5z m-16519 -261 c-6 -4 -12 -29 -13 -56
-2 -62 -8 -70 -13 -17 -4 47 6 81 24 81 9 0 10 -3 2 -8z m63 -84 c-2 -18 -4
-4 -4 32 0 36 2 50 4 33 2 -18 2 -48 0 -65z m-454 75 c-7 -2 -21 -2 -30 0 -10
3 -4 5 12 5 17 0 24 -2 18 -5z m2587 -26 c12 -4 11 -6 -2 -6 -10 -1 -18 -8
-18 -16 0 -7 8 -19 18 -24 15 -9 15 -10 -5 -11 -18 0 -23 6 -23 25 0 14 -5 25
-10 25 -6 0 -5 6 2 14 7 8 15 10 18 6 3 -4 12 -10 20 -13z m-2497 -4 c3 -5 -8
-8 -23 -8 -15 0 -26 3 -23 8 2 4 13 7 23 7 10 0 21 -3 23 -7z m104 1 c-3 -3
-12 -4 -19 -1 -8 3 -5 6 6 6 11 1 17 -2 13 -5z m86 -1 c3 -5 -8 -8 -23 -8 -15
0 -26 3 -23 8 2 4 13 7 23 7 10 0 21 -3 23 -7z m247 3 c0 -2 -9 -6 -20 -9 -11
-3 -18 -1 -14 4 5 9 34 13 34 5z m-522 -43 c-2 -21 -9 -28 -26 -29 -18 -1 -19
-1 -2 3 22 5 28 38 8 46 -8 3 -5 6 5 6 14 1 18 -5 15 -26z m542 17 c0 -5 -15
-9 -32 -9 l-33 1 30 8 c17 4 31 8 33 9 1 0 2 -3 2 -9z m-457 -42 c-2 -5 -13
-8 -23 -8 -10 0 -21 3 -23 8 -3 4 8 7 23 7 15 0 26 -3 23 -7z m190 0 c-2 -5
-13 -8 -23 -8 -10 0 -21 3 -23 8 -3 4 8 7 23 7 15 0 26 -3 23 -7z m243 -6
c-10 -2 -22 0 -28 6 -6 6 0 7 19 4 21 -5 23 -7 9 -10z m16039 -242 l0 -55 -57
-3 -58 -3 0 54 c0 29 3 57 7 61 4 4 30 6 58 4 l50 -3 0 -55z m1393 -10 c5
-108 4 -110 -81 -110 -43 0 -78 5 -85 12 -13 13 -17 124 -6 153 5 13 20 15 88
13 l81 -3 3 -65z m-10738 15 c0 -14 5 -34 12 -44 35 -56 -109 -89 -160 -37
-13 12 -13 20 -4 38 6 13 12 34 14 48 3 22 9 26 53 30 62 7 85 -3 85 -35z
m10030 29 c11 -13 5 -24 -45 -74 -65 -66 -95 -80 -95 -47 0 19 104 137 121
137 4 0 12 -7 19 -16z m-460 -24 c0 -24 3 -28 18 -23 13 5 12 1 -5 -18 l-23
-23 -22 23 c-18 19 -19 23 -5 18 14 -5 17 -1 17 23 0 17 5 30 10 30 6 0 10
-13 10 -30z m-13170 -40 l0 -60 -35 0 c-29 0 -36 4 -41 25 -7 29 10 55 37 55
12 0 19 7 19 20 0 11 5 20 10 20 6 0 10 -27 10 -60z m520 0 c0 -33 -4 -60 -10
-60 -6 0 -10 27 -10 60 0 33 4 60 10 60 6 0 10 -27 10 -60z m-700 41 c0 -5
-12 -11 -26 -13 -56 -6 -53 -68 2 -68 13 0 24 -4 24 -10 0 -16 -57 -12 -74 6
-35 35 -6 94 46 94 15 0 28 -4 28 -9z m655 -23 c-1 -16 3 -28 7 -28 15 0 8
-38 -8 -44 -45 -17 -54 -8 -54 50 0 54 0 55 28 52 22 -2 27 -8 27 -30z m643
25 c-10 -2 -26 -2 -35 0 -10 3 -2 5 17 5 19 0 27 -2 18 -5z m672 3 c0 -2 -9
-6 -20 -9 -11 -3 -18 -1 -14 4 5 9 34 13 34 5z m740 0 c0 -2 -9 -6 -20 -9 -11
-3 -18 -1 -14 4 5 9 34 13 34 5z m63 -3 c-7 -2 -19 -2 -25 0 -7 3 -2 5 12 5
14 0 19 -2 13 -5z m163 -11 c1 -7 0 -8 -3 -2 -7 16 -33 12 -33 -5 0 -8 6 -15
14 -15 8 0 17 -4 20 -9 4 -5 -3 -7 -14 -4 -14 4 -20 0 -20 -12 0 -12 6 -16 20
-12 11 3 18 1 14 -4 -3 -5 -14 -9 -25 -9 -16 0 -19 7 -19 46 0 41 2 45 22 42
12 -2 23 -9 24 -16z m144 -5 c12 -4 11 -6 -2 -6 -23 -1 -25 -47 -3 -54 11 -4
10 -4 -2 -3 -12 1 -19 11 -21 29 -2 15 -8 27 -13 27 -5 0 -4 6 3 14 7 8 15 10
18 6 3 -4 12 -10 20 -13z m840 4 c0 -5 -10 -11 -22 -13 -17 -2 -24 -11 -26
-30 -3 -24 0 -28 22 -28 14 0 26 -4 26 -10 0 -12 -40 -13 -56 -2 -37 25 -14
92 31 92 14 0 25 -4 25 -9z m160 -41 c0 -49 -1 -50 -29 -50 -17 0 -33 5 -36
10 -5 8 -11 7 -20 0 -8 -6 -24 -10 -37 -8 -18 2 -23 9 -23 33 0 24 5 31 23 33
13 2 29 -2 37 -8 9 -7 15 -8 20 0 3 5 15 10 26 10 10 0 19 7 19 15 0 8 5 15
10 15 6 0 10 -22 10 -50z m180 40 c0 -5 -7 -10 -15 -10 -8 0 -15 -4 -15 -10 0
-5 6 -10 14 -10 19 0 29 -30 15 -46 -13 -16 -59 -19 -59 -4 0 6 9 10 20 10 11
0 20 5 20 10 0 6 -7 10 -15 10 -10 0 -15 10 -15 30 0 25 4 30 25 30 14 0 25
-4 25 -10z m75 0 c-3 -5 -13 -10 -21 -10 -21 0 -17 -17 7 -23 32 -9 22 -51
-13 -55 -16 -2 -28 1 -28 7 0 6 9 11 20 11 11 0 20 5 20 10 0 6 -9 10 -20 10
-16 0 -20 7 -20 30 0 27 3 30 31 30 17 0 28 -4 24 -10z m63 -13 c4 -20 -25
-34 -40 -19 -15 15 -1 44 19 40 10 -2 19 -11 21 -21z m28 -1 c-15 -24 -15 -25
7 -28 30 -4 30 -42 0 -46 -18 -3 -23 2 -23 18 l0 22 -21 -23 c-25 -30 -22 -17
11 38 14 24 29 43 34 43 4 0 1 -11 -8 -24z m116 12 c-12 -15 -12 -16 -12 -58
0 -40 -17 -38 -22 3 -5 49 1 67 24 67 15 0 18 -3 10 -12z m468 2 c0 -5 -4 -10
-10 -10 -5 0 -10 5 -10 10 0 6 5 10 10 10 6 0 10 -4 10 -10z m80 -4 c0 -8 10
-16 23 -18 17 -2 23 -11 25 -35 2 -19 -1 -33 -7 -33 -6 0 -11 11 -11 25 0 16
-6 25 -15 25 -9 0 -15 -9 -15 -25 0 -21 -5 -25 -29 -25 -26 0 -29 4 -33 35 -4
37 9 71 19 48 7 -18 23 -16 23 2 0 8 5 15 10 15 6 0 10 -6 10 -14z m180 5 c0
-5 -12 -11 -27 -13 -22 -2 -29 -9 -31 -30 -3 -24 0 -28 20 -27 13 0 17 3 11 6
-20 8 -15 23 7 23 15 0 20 -7 20 -25 0 -21 -5 -25 -30 -25 -20 0 -35 8 -46 25
-15 23 -15 27 0 50 11 17 26 25 46 25 17 0 30 -4 30 -9z m30 -1 c0 -5 -4 -10
-10 -10 -5 0 -10 5 -10 10 0 6 5 10 10 10 6 0 10 -4 10 -10z m90 -10 c0 -13 7
-20 20 -20 13 0 20 7 20 20 0 11 5 20 10 20 6 0 10 -22 10 -50 0 -27 -4 -50
-10 -50 -5 0 -10 9 -10 20 0 13 -7 20 -20 20 -13 0 -20 -7 -20 -20 0 -11 -4
-20 -10 -20 -5 0 -10 23 -10 50 0 28 5 50 10 50 6 0 10 -9 10 -20z m170 5 c0
-9 9 -15 24 -15 16 0 27 -7 31 -20 9 -28 -11 -50 -46 -50 -28 0 -29 2 -29 50
0 28 5 50 10 50 6 0 10 -7 10 -15z m180 6 c0 -5 -12 -11 -27 -13 -22 -2 -28
-8 -28 -28 0 -20 6 -26 28 -28 36 -4 35 -22 -1 -22 -35 0 -52 16 -52 50 0 14
5 31 12 38 14 14 68 16 68 3z m190 -1 c0 -5 -4 -10 -10 -10 -5 0 -10 5 -10 10
0 6 5 10 10 10 6 0 10 -4 10 -10z m30 -40 c0 -27 -4 -50 -10 -50 -5 0 -10 23
-10 50 0 28 5 50 10 50 6 0 10 -22 10 -50z m6648 23 c2 -13 -2 -23 -8 -23 -6
0 -4 -10 6 -25 9 -14 12 -25 6 -25 -6 0 -16 9 -22 20 -6 11 -15 20 -20 20 -6
0 -10 -9 -10 -20 0 -11 -4 -20 -10 -20 -5 0 -10 23 -10 51 l0 50 33 -3 c24 -2
33 -8 35 -25z m-11098 -12 c0 -16 6 -32 13 -34 6 -3 -1 -5 -18 -5 -16 0 -24 2
-17 5 6 2 12 15 12 28 0 13 -6 26 -12 28 -8 3 -6 6 5 6 12 1 17 -7 17 -28z
m90 20 c0 -5 -8 -8 -17 -7 -12 1 -20 -9 -24 -29 l-7 -30 -1 35 c-1 31 2 36 24
38 14 1 25 -2 25 -7z m78 -14 c3 -13 -3 -17 -25 -16 -23 1 -24 2 -5 6 12 2 22
9 22 15 0 6 -9 8 -20 5 -11 -3 -17 -1 -14 4 9 15 38 6 42 -14z m65 16 c-7 -2
-19 -2 -25 0 -7 3 -2 5 12 5 14 0 19 -2 13 -5z m451 -1 c3 -5 -5 -8 -17 -8
-13 1 -23 -6 -25 -17 -4 -22 27 -35 40 -16 8 12 9 11 5 -1 -5 -20 -37 -19 -50
2 -8 12 -7 21 2 32 14 17 37 21 45 8z m73 2 c-3 -3 -12 -4 -19 -1 -8 3 -5 6 6
6 11 1 17 -2 13 -5z m887 -3 c4 -5 -3 -7 -14 -4 -23 6 -26 13 -6 13 8 0 17 -4
20 -9z m73 3 c-3 -3 -12 -4 -19 -1 -8 3 -5 6 6 6 11 1 17 -2 13 -5z m1477 -6
c10 -10 11 -17 2 -31 -8 -14 -8 -20 4 -27 18 -11 6 -25 -15 -17 -8 4 -15 17
-15 30 0 16 -6 23 -20 23 -11 0 -20 -4 -20 -8 0 -4 7 -8 16 -8 24 0 12 -35
-14 -38 -12 -2 -22 1 -22 7 0 6 7 8 15 5 8 -4 15 -1 15 5 0 6 -7 11 -16 11
-28 0 -11 35 19 38 15 2 27 8 27 13 0 12 8 11 24 -3z m642 -3 c9 -8 11 -15 5
-15 -6 0 -11 -9 -11 -20 0 -11 5 -20 10 -20 6 0 10 -5 10 -11 0 -6 -8 -9 -17
-7 -18 3 -33 51 -25 76 5 16 10 15 28 -3z m738 3 c10 -10 11 -17 2 -31 -8 -14
-8 -20 4 -27 17 -11 7 -25 -13 -17 -14 5 -27 53 -19 75 5 15 10 15 26 0z
m6893 5 c-15 -4 -17 -13 -15 -51 3 -47 3 -47 43 -50 29 -3 43 1 53 15 13 17
14 17 10 -2 -2 -16 -12 -21 -46 -23 -56 -4 -72 10 -72 63 0 46 5 56 29 54 12
-1 12 -2 -2 -6z m-12892 -43 c0 -29 -4 -36 -23 -38 -43 -6 -69 37 -40 66 7 7
24 12 38 10 21 -3 25 -8 25 -38z m183 18 c3 -13 -3 -18 -22 -18 -14 0 -26 -4
-26 -10 0 -5 12 -10 27 -10 19 0 24 -3 16 -11 -6 -6 -21 -9 -34 -7 -25 3 -36
34 -25 64 8 21 60 14 64 -8z m520 -21 c3 -38 3 -38 -30 -35 -42 4 -51 34 -14
44 14 3 23 10 20 16 -3 5 -12 7 -20 4 -8 -3 -14 -1 -14 5 0 6 12 9 28 7 23 -3
27 -8 30 -41z m130 1 c2 -22 -1 -38 -7 -38 -6 0 -11 16 -11 36 0 45 -24 42
-28 -4 -4 -44 -22 -40 -22 4 0 45 -24 42 -28 -4 -5 -46 -22 -39 -22 8 l0 40
58 -2 57 -3 3 -37z m90 20 c3 -14 -3 -18 -27 -18 -24 0 -29 -4 -24 -16 3 -9
13 -14 24 -11 11 3 19 1 19 -4 0 -5 -11 -9 -25 -9 -32 0 -50 32 -35 61 14 25
63 23 68 -3z m859 -15 c-3 -10 -5 -4 -5 12 0 17 2 24 5 18 2 -7 2 -21 0 -30z
m60 5 c-3 -7 -5 -2 -5 12 0 14 2 19 5 13 2 -7 2 -19 0 -25z m50 7 c1 -15 0
-15 -3 -3 -3 9 -13 19 -22 22 -12 3 -12 4 3 3 12 -1 21 -10 22 -22z m690 -7
c-3 -7 -5 -2 -5 12 0 14 2 19 5 13 2 -7 2 -19 0 -25z m50 7 c1 -15 0 -15 -3
-3 -3 9 -13 19 -22 22 -12 3 -12 4 3 3 12 -1 21 -10 22 -22z m-1427 7 c0 -5
-7 -17 -15 -28 -14 -18 -14 -17 -4 9 12 27 19 34 19 19z m457 -25 c-2 -7 -12
-12 -23 -13 -15 -1 -16 0 -1 3 9 3 17 7 17 10 0 3 -8 12 -17 20 -16 13 -16 13
5 3 13 -6 21 -17 19 -23z m504 -10 c15 -4 14 -4 -3 -3 -16 1 -23 8 -24 21 -1
14 0 15 3 3 2 -9 13 -19 24 -21z m534 18 c0 -13 -7 -20 -20 -21 -15 -1 -16 0
-2 3 9 3 17 10 17 18 0 7 -8 16 -17 19 -14 4 -14 4 2 3 13 -2 20 -10 20 -22z
m358 7 c-28 -4 -30 -19 -3 -25 17 -4 16 -4 -2 -3 -15 1 -24 8 -26 22 -3 19 1
21 25 16 25 -6 26 -7 6 -10z m87 -8 c0 -2 -9 0 -20 6 -11 6 -20 13 -20 16 0 2
9 0 20 -6 11 -6 20 -13 20 -16z m920 22 c0 -2 3 -11 6 -20 5 -12 0 -16 -21
-16 -16 0 -24 -4 -20 -11 4 -6 13 -8 21 -5 8 3 14 1 14 -5 0 -6 -12 -9 -27 -7
-47 5 -45 68 2 68 14 0 25 -2 25 -4z m458 -33 c3 -31 1 -33 -27 -33 -36 0 -44
28 -11 37 11 3 17 9 15 14 -3 4 -13 5 -22 2 -11 -4 -14 -3 -9 6 4 7 18 11 29
9 17 -2 23 -11 25 -35z m180 15 c2 -13 -3 -18 -18 -18 -12 0 -19 -4 -15 -10 3
-5 13 -6 22 -3 11 4 14 3 9 -5 -4 -7 -18 -12 -31 -12 -28 0 -43 34 -24 56 16
19 53 14 57 -8z m44 10 c-7 -7 -12 -22 -12 -35 0 -13 -4 -23 -10 -23 -5 0 -10
16 -10 35 0 29 4 35 22 35 17 0 19 -3 10 -12z m74 -5 c13 -17 13 -17 14 0 0
24 19 21 30 -5 l9 -23 0 23 c1 17 7 22 26 22 22 0 25 -4 25 -35 0 -44 -20 -46
-21 -2 l-1 32 -10 -32 c-11 -35 -38 -45 -38 -15 -1 15 -2 15 -15 -2 -17 -23
-30 -14 -40 27 -8 31 2 35 21 10z m394 -18 c0 -19 -4 -35 -10 -35 -5 0 -10 16
-10 35 0 19 5 35 10 35 6 0 10 -16 10 -35z m190 10 c0 -14 5 -25 10 -25 6 0
10 11 10 25 0 14 5 25 10 25 6 0 10 -16 10 -35 0 -32 -3 -35 -29 -35 -29 0
-41 14 -41 51 0 10 7 19 15 19 9 0 15 -9 15 -25z m325 5 c14 -43 -44 -67 -68
-28 -8 12 -7 21 2 32 19 23 58 20 66 -4z m80 -15 c0 -23 -5 -31 -22 -33 -13
-2 -23 -10 -23 -18 0 -8 -4 -14 -10 -14 -5 0 -10 23 -10 51 l0 50 33 -3 c28
-3 32 -6 32 -33z m35 0 c0 -19 -4 -35 -10 -35 -5 0 -10 16 -10 35 0 19 5 35
10 35 6 0 10 -16 10 -35z m115 0 c0 -26 -3 -30 -29 -30 -36 0 -56 26 -36 50 8
9 24 15 39 13 22 -2 26 -8 26 -33z m6639 19 c3 -9 6 -25 6 -35 0 -17 -6 -20
-32 -17 -40 4 -45 29 -8 38 17 4 21 8 12 14 -6 4 -16 4 -22 1 -5 -3 -10 -1
-10 4 0 17 47 13 54 -5z m26 1 c0 -8 5 -15 10 -15 6 0 10 7 10 15 0 23 21 18
28 -7 l5 -22 9 24 c12 32 19 20 12 -18 -7 -36 -34 -43 -35 -9 l0 22 -11 -22
c-18 -37 -30 -31 -42 20 -4 16 -2 27 4 27 5 0 10 -7 10 -15z m1360 12 c0 -2
-8 -11 -18 -21 -18 -15 -20 -15 -37 4 -18 20 -18 20 18 20 21 0 37 -2 37 -3z
m-11081 -47 c0 -10 -3 -8 -9 5 -12 27 -12 43 0 25 5 -8 9 -22 9 -30z m-1323 2
c-10 -2 -22 0 -28 6 -6 6 0 7 19 4 21 -5 23 -7 9 -10z m11670 -12 c50 0 64 3
64 15 0 8 5 15 11 15 6 0 9 -8 7 -17 -3 -15 -15 -18 -78 -18 -59 0 -75 3 -76
15 0 9 1 10 3 3 3 -9 26 -13 69 -13z m-11893 13 c-7 -2 -19 -2 -25 0 -7 3 -2
5 12 5 14 0 19 -2 13 -5z m670 0 c-7 -2 -21 -2 -30 0 -10 3 -4 5 12 5 17 0 24
-2 18 -5z m520 0 c-7 -2 -21 -2 -30 0 -10 3 -4 5 12 5 17 0 24 -2 18 -5z m584
1 c-3 -3 -12 -4 -19 -1 -8 3 -5 6 6 6 11 1 17 -2 13 -5z m-3817 -69 l23 -25
-48 0 -48 0 23 25 c13 14 24 25 25 25 1 0 12 -11 25 -25z m-2995 -4 c6 -5 26
-11 45 -14 20 -2 6 -4 -32 -5 -94 -3 -87 -22 8 -22 l75 0 -3 -42 -3 -43 -80 0
-80 0 -3 54 c-2 29 -1 60 2 67 6 16 57 19 71 5z m325 -51 c0 -33 -4 -60 -10
-60 -6 0 -10 27 -10 60 0 33 4 60 10 60 6 0 10 -27 10 -60z m40 50 c0 -5 -7
-10 -15 -10 -8 0 -15 5 -15 10 0 6 7 10 15 10 8 0 15 -4 15 -10z m-74 -11 c4
-7 0 -9 -13 -5 -43 14 -68 -18 -51 -63 7 -20 13 -22 39 -17 18 3 28 2 24 -4
-12 -19 -63 -11 -79 12 -21 30 -20 44 4 68 22 22 65 27 76 9z m290 -14 c9 -8
11 -15 5 -15 -15 0 -14 -57 2 -63 6 -3 2 -6 -10 -6 -20 -1 -23 4 -23 34 0 19
-4 35 -10 35 -5 0 -10 -16 -10 -35 0 -44 -18 -46 -22 -3 -4 46 -28 49 -28 4 0
-25 -4 -36 -15 -36 -8 0 -15 9 -15 20 0 16 -7 20 -31 20 -20 0 -29 -4 -26 -12
2 -7 14 -13 26 -12 11 0 21 -3 21 -8 0 -5 -15 -8 -32 -6 -29 3 -33 7 -33 32 0
37 27 56 55 38 13 -8 20 -8 20 -2 0 7 19 10 47 8 29 -1 48 3 51 10 5 16 10 15
28 -3z m-216 -45 c0 -29 -4 -40 -15 -40 -11 0 -15 11 -15 40 0 29 4 40 15 40
11 0 15 -11 15 -40z m4522 -229 c-8 -5 -14 -27 -14 -56 0 -29 6 -51 14 -57 9
-7 8 -8 -7 -6 -13 2 -21 12 -24 28 -1 14 -8 28 -15 32 -8 6 -8 8 2 8 6 0 12
11 12 23 0 28 7 37 29 37 13 0 13 -2 3 -9z m158 -41 c0 -49 -1 -50 -29 -50
-21 0 -32 6 -36 20 -7 23 10 50 31 50 8 0 14 7 14 15 0 8 5 15 10 15 6 0 10
-22 10 -50z m143 40 c-27 -11 -30 -30 -5 -31 16 -1 16 -2 0 -6 -11 -3 -18 -14
-18 -29 0 -13 -4 -24 -10 -24 -5 0 -10 11 -10 25 0 14 -4 25 -10 25 -5 0 -10
-4 -10 -9 0 -5 -12 -11 -27 -13 l-28 -4 25 -12 25 -12 -30 3 c-26 2 -30 6 -30
32 0 25 4 30 28 33 15 2 27 -1 27 -7 0 -17 29 -1 35 20 4 13 15 19 33 18 26 0
26 -1 5 -9z m67 0 c0 -5 -7 -10 -15 -10 -8 0 -15 5 -15 10 0 6 7 10 15 10 8 0
15 -4 15 -10z m453 0 c-27 -11 -30 -30 -5 -31 16 -1 16 -2 0 -6 -11 -3 -18
-14 -18 -29 0 -13 -4 -24 -10 -24 -5 0 -10 11 -10 25 0 14 -4 25 -10 25 -5 0
-10 -11 -10 -25 0 -33 -18 -32 -22 0 -2 14 -7 26 -13 26 -5 0 -11 -12 -13 -26
-5 -38 -22 -30 -22 10 0 32 2 35 30 35 17 0 30 -4 30 -10 0 -16 29 1 35 21 4
13 15 19 33 18 26 0 26 -1 5 -9z m67 0 c0 -5 -7 -10 -15 -10 -8 0 -15 5 -15
10 0 6 7 10 15 10 8 0 15 -4 15 -10z m219 -20 c1 -14 8 -28 15 -32 8 -6 8 -8
-1 -8 -6 0 -13 -12 -15 -27 -2 -19 -10 -29 -23 -31 -15 -2 -16 -1 -7 6 8 6 14
28 14 57 0 29 -6 51 -14 57 -9 7 -8 8 7 6 13 -2 21 -12 24 -28z m521 21 c0 -6
-4 -13 -10 -16 -5 -3 -10 1 -10 9 0 9 5 16 10 16 6 0 10 -4 10 -9z m140 -1 c0
-5 -4 -10 -10 -10 -5 0 -10 5 -10 10 0 6 5 10 10 10 6 0 10 -4 10 -10z m230 1
c0 -6 -4 -13 -10 -16 -5 -3 -10 1 -10 9 0 9 5 16 10 16 6 0 10 -4 10 -9z
m-1396 -10 c4 -5 -2 -7 -13 -4 -21 5 -35 -20 -26 -48 9 -28 32 -23 47 9 19 38
62 38 66 -1 4 -32 -21 -46 -49 -29 -11 7 -20 8 -24 2 -9 -15 -41 -12 -55 5
-14 16 -60 21 -60 6 0 -5 10 -12 23 -14 15 -4 12 -5 -8 -4 -25 2 -31 7 -33 30
-4 31 20 47 48 30 13 -9 19 -7 28 8 13 20 47 26 56 10z m1236 -1 c0 -5 8 -11
18 -11 16 -1 16 -2 0 -6 -11 -3 -18 -14 -18 -28 0 -14 7 -26 18 -29 10 -3 6
-4 -8 -3 -19 2 -26 8 -28 30 -2 15 -8 27 -13 27 -11 0 12 29 24 30 4 0 7 -4 7
-10z m-2370 -39 c0 -16 6 -32 13 -34 6 -3 -1 -5 -18 -5 -16 0 -24 2 -17 5 6 2
12 15 12 28 0 13 -6 26 -12 28 -8 3 -6 6 5 6 12 1 17 -7 17 -28z m70 25 c0 -2
-7 -7 -16 -10 -8 -3 -12 -2 -9 4 6 10 25 14 25 6z m28 -42 c-3 -27 -4 -26 -9
8 -3 22 -1 34 4 29 5 -5 7 -21 5 -37z m62 42 c0 -2 -9 -6 -20 -9 -11 -3 -18
-1 -14 4 5 9 34 13 34 5z m73 -3 c3 -5 -5 -8 -18 -8 -13 0 -21 3 -18 8 2 4 10
7 18 7 8 0 16 -3 18 -7z m145 0 c-10 -2 -26 -2 -35 0 -10 3 -2 5 17 5 19 0 27
-2 18 -5z m522 -22 c0 -16 6 -32 13 -34 6 -3 -6 -5 -28 -5 -22 0 -32 2 -22 5
20 5 24 49 5 56 -7 3 -3 6 10 6 18 1 22 -4 22 -28z m88 -8 c2 -19 -1 -33 -7
-33 -6 0 -11 14 -11 30 0 17 -4 30 -10 30 -5 0 -10 -13 -10 -30 0 -16 -4 -30
-10 -30 -5 0 -10 16 -10 36 0 33 2 35 28 32 22 -2 28 -8 30 -35z m422 8 c0
-16 6 -32 13 -34 6 -3 -4 -5 -23 -5 -19 0 -29 2 -22 5 6 2 12 15 12 28 0 13
-6 26 -12 28 -7 3 -3 6 10 6 18 1 22 -4 22 -28z m100 17 c0 -20 -13 -35 -35
-41 -15 -3 -13 -5 8 -6 41 -2 33 -36 -8 -36 -29 0 -30 2 -28 40 0 22 1 43 2
48 2 13 61 8 61 -5z m434 3 c4 -5 -3 -7 -14 -4 -23 6 -26 13 -6 13 8 0 17 -4
20 -9z m56 5 c0 -2 -7 -7 -16 -10 -8 -3 -12 -2 -9 4 6 10 25 14 25 6z m28 -42
c-3 -27 -4 -26 -9 8 -3 22 -1 34 4 29 5 -5 7 -21 5 -37z m201 20 c15 39 24 28
10 -12 -13 -39 -26 -41 -39 -6 -15 38 -10 54 5 19 l13 -30 11 29z m71 -3 c0
-16 6 -32 13 -34 6 -3 -1 -5 -18 -5 -16 0 -24 2 -17 5 6 2 12 15 12 28 0 13
-6 26 -12 28 -8 3 -6 6 5 6 12 1 17 -7 17 -28z m168 7 c3 -14 -3 -18 -24 -18
-30 0 -23 -15 11 -23 15 -4 14 -5 -7 -6 -32 -1 -42 12 -34 45 5 19 12 25 29
22 12 -2 23 -11 25 -20z m-680 5 c-10 -2 -26 -2 -35 0 -10 3 -2 5 17 5 19 0
27 -2 18 -5z m-6053 -13 c3 -5 26 -10 50 -10 39 0 45 -3 51 -24 3 -13 4 -38 2
-57 l-3 -34 -85 0 -85 0 -3 54 c-2 29 -1 60 2 67 6 16 62 19 71 4z m405 -13
c0 -18 5 -23 28 -22 24 0 27 -3 27 -35 0 -33 -2 -35 -37 -38 l-38 -3 0 60 c0
34 4 61 10 61 6 0 10 -10 10 -23z m100 -37 c0 -47 -3 -60 -15 -60 -12 0 -15
13 -15 60 0 47 3 60 15 60 12 0 15 -13 15 -60z m40 50 c0 -5 -7 -10 -15 -10
-8 0 -15 5 -15 10 0 6 7 10 15 10 8 0 15 -4 15 -10z m5617 -12 c-3 -8 -6 -5
-6 6 -1 11 2 17 5 13 3 -3 4 -12 1 -19z m-1742 -18 c-3 -5 -14 -10 -23 -9 -14
0 -13 2 3 9 27 11 27 11 20 0z m78 -2 c-2 -5 -10 -8 -18 -8 -8 0 -16 3 -18 8
-3 4 5 7 18 7 13 0 21 -3 18 -7z m148 -6 c-7 -2 -18 1 -23 6 -8 8 -4 9 13 5
13 -4 18 -8 10 -11z m-4363 -20 c4 -28 -14 -52 -39 -52 -12 0 -19 -7 -19 -20
0 -11 -4 -20 -10 -20 -6 0 -10 27 -10 61 l0 60 38 -3 c30 -2 38 -7 40 -26z
m34 -4 c4 -46 28 -49 28 -4 0 25 4 36 15 36 11 0 15 -11 15 -41 l0 -40 -37 3
c-36 3 -38 5 -41 41 -2 20 1 37 7 37 5 0 11 -14 13 -32z m218 -8 c0 -22 -4
-40 -10 -40 -5 0 -10 18 -10 40 0 22 5 40 10 40 6 0 10 -18 10 -40z m80 30 c0
-5 -6 -7 -13 -4 -8 3 -20 -2 -27 -11 -10 -12 -10 -18 0 -30 7 -9 19 -14 27
-11 7 3 13 1 13 -4 0 -19 -49 -10 -60 10 -15 28 4 60 35 60 14 0 25 -4 25 -10z
m3183 3 c-7 -2 -19 -2 -25 0 -7 3 -2 5 12 5 14 0 19 -2 13 -5z m2404 1 c-3 -3
-12 -4 -19 -1 -8 3 -5 6 6 6 11 1 17 -2 13 -5z m-947 -138 c0 -2 -9 -6 -20 -9
-11 -3 -18 -1 -14 4 5 9 34 13 34 5z m350 -11 c0 -8 -4 -15 -10 -15 -5 0 -10
7 -10 15 0 8 5 15 10 15 6 0 10 -7 10 -15z m103 -10 c15 -14 27 -33 27 -41 0
-8 5 -12 10 -9 6 3 10 15 10 26 0 10 5 19 11 19 7 0 8 -7 4 -17 -4 -10 -10
-26 -12 -35 -8 -28 -23 -21 -36 15 l-11 32 -6 -30 c-4 -24 -11 -31 -35 -35
-20 -4 -26 -8 -17 -13 6 -5 17 -5 22 -2 6 3 10 1 10 -4 0 -20 -39 -11 -51 10
-19 36 5 109 35 109 6 0 24 -11 39 -25z m117 15 c0 -5 -4 -10 -10 -10 -5 0
-10 5 -10 10 0 6 5 10 10 10 6 0 10 -4 10 -10z m374 -27 c-9 -21 -18 -46 -21
-55 -3 -10 -9 -18 -14 -18 -7 0 10 51 32 93 18 32 19 17 3 -20z m146 -7 c0
-26 5 -46 13 -49 6 -3 -4 -5 -23 -5 -19 0 -27 2 -17 5 20 5 25 78 5 86 -8 3
-6 6 5 6 14 1 17 -7 17 -43z m220 34 c0 -5 -4 -10 -10 -10 -5 0 -10 5 -10 10
0 6 5 10 10 10 6 0 10 -4 10 -10z m600 1 c0 -6 -4 -13 -10 -16 -5 -3 -10 1
-10 9 0 9 5 16 10 16 6 0 10 -4 10 -9z m-3363 -26 c1 -15 0 -15 -3 -3 -3 9
-13 19 -22 22 -12 3 -12 4 3 3 12 -1 21 -10 22 -22z m1273 15 c0 -5 8 -11 18
-11 16 -1 16 -2 0 -6 -11 -3 -18 -14 -18 -28 0 -14 7 -26 18 -29 10 -3 6 -4
-8 -3 -19 2 -26 8 -28 30 -2 15 -8 27 -13 27 -11 0 12 29 24 30 4 0 7 -4 7
-10z m835 -13 c18 -4 18 -5 -2 -6 -16 -1 -23 -7 -23 -21 0 -12 10 -25 23 -30
22 -10 22 -10 -3 -7 -19 1 -26 8 -28 30 -2 15 -8 27 -13 27 -5 0 -4 6 3 14 7
8 15 10 18 6 3 -4 14 -10 25 -13z m1185 0 c12 -4 11 -6 -2 -6 -23 -1 -25 -47
-3 -54 11 -4 10 -4 -2 -3 -12 1 -19 11 -21 29 -2 15 -8 27 -13 27 -5 0 -4 6 3
14 7 8 15 10 18 6 3 -4 12 -10 20 -13z m-2830 -26 c0 -16 6 -32 13 -34 6 -3
-1 -5 -18 -5 -16 0 -24 2 -17 5 6 2 12 15 12 28 0 13 -6 26 -12 28 -8 3 -6 6
5 6 12 1 17 -7 17 -28z m70 25 c0 -2 -7 -7 -16 -10 -8 -3 -12 -2 -9 4 6 10 25
14 25 6z m28 -42 c-3 -27 -4 -26 -9 8 -3 22 -1 34 4 29 5 -5 7 -21 5 -37z m62
42 c0 -2 -9 -6 -20 -9 -11 -3 -18 -1 -14 4 5 9 34 13 34 5z m73 -3 c3 -5 -5
-8 -18 -8 -13 0 -21 3 -18 8 2 4 10 7 18 7 8 0 16 -3 18 -7z m145 0 c-10 -2
-26 -2 -35 0 -10 3 -2 5 17 5 19 0 27 -2 18 -5z m167 -3 c4 -6 13 -5 24 2 22
14 51 4 51 -17 0 -10 -9 -15 -27 -15 -29 0 -22 -15 12 -23 16 -4 16 -5 -5 -6
-16 -1 -36 10 -54 30 -30 31 -45 27 -46 -13 0 -10 -4 -18 -10 -18 -5 0 -10 16
-10 35 0 32 2 35 29 35 17 0 33 -4 36 -10z m143 -27 c3 -31 1 -33 -27 -33 -24
0 -31 4 -31 20 0 13 7 20 20 20 11 0 20 5 20 11 0 6 -9 8 -21 4 -15 -5 -19 -4
-14 5 4 6 17 10 28 8 17 -2 23 -11 25 -35z m55 27 c-13 -5 -23 -16 -23 -25 0
-9 10 -20 23 -25 l22 -10 -24 3 c-52 5 -49 68 3 66 21 0 21 0 -1 -9z m313 -2
c4 -7 3 -8 -5 -4 -6 4 -18 2 -26 -4 -9 -8 -15 -8 -15 -2 0 9 15 19 32 21 4 1
10 -4 14 -11z m67 5 c3 -5 -5 -8 -18 -8 -13 0 -21 3 -18 8 2 4 10 7 18 7 8 0
16 -3 18 -7z m83 -34 l2 -34 -5 33 c-2 18 -8 30 -13 27 -5 -3 -11 -1 -14 4 -4
5 2 8 11 7 13 -2 18 -13 19 -37z m354 12 c0 -16 6 -32 13 -34 6 -3 -4 -5 -23
-5 -19 0 -27 2 -17 5 20 5 24 49 5 56 -8 3 -6 6 5 6 12 1 17 -7 17 -28z m168
7 c3 -14 -3 -18 -24 -18 -30 0 -23 -14 11 -23 12 -3 8 -5 -10 -4 -31 2 -43 23
-31 53 8 21 50 14 54 -8z m60 -25 c-3 -43 -6 -48 -28 -50 -25 -3 -25 -3 -2 7
28 12 32 76 5 83 -13 3 -12 5 5 6 21 1 23 -2 20 -46z m70 40 c-24 -6 -23 -19
3 -26 30 -8 18 -32 -17 -34 -20 -1 -22 0 -6 4 24 5 31 23 8 23 -8 0 -18 5 -21
10 -10 16 4 30 28 29 17 -1 18 -2 5 -6z m167 -23 c0 -16 -8 -28 -22 -35 -12
-5 -24 -16 -27 -25 -2 -8 -4 8 -5 36 -1 49 0 51 27 50 22 -1 27 -6 27 -26z
m118 -27 c7 2 15 17 18 33 6 27 7 27 8 -8 1 -34 -2 -38 -24 -38 -23 0 -25 4
-23 38 l1 37 4 -33 c3 -20 9 -32 16 -29z m102 40 c-2 -10 -4 -21 -4 -25 -1 -4
-11 -9 -23 -11 -19 -4 -18 -5 5 -6 38 -1 33 -35 -6 -39 -26 -3 -27 -1 -27 41
0 50 4 57 36 57 16 0 21 -5 19 -17z m55 -12 c0 -16 6 -32 13 -34 6 -3 -1 -5
-18 -5 -16 0 -24 2 -17 5 6 2 12 15 12 28 0 13 -6 26 -12 28 -8 3 -6 6 5 6 12
1 17 -7 17 -28z m92 16 c11 -17 10 -57 -2 -57 -5 0 -10 14 -10 31 0 39 -22 34
-31 -7 -7 -28 -7 -28 -8 6 -1 30 3 36 21 37 12 1 26 -3 30 -10z m156 -7 c4
-12 3 -13 -10 -2 -17 14 -32 2 -41 -33 -3 -12 -5 -6 -6 16 -1 33 1 36 26 35
14 -1 29 -8 31 -16z m70 -2 c3 -14 -3 -18 -24 -18 -30 0 -23 -14 11 -23 12 -3
8 -5 -10 -4 -31 2 -43 23 -31 53 8 21 50 14 54 -8z m70 -16 c3 -31 2 -33 -25
-30 -34 4 -38 32 -5 36 12 2 22 8 22 14 0 6 -9 8 -20 5 -11 -3 -17 -1 -14 4
13 22 39 3 42 -29z m65 31 c-13 -2 -24 -9 -24 -14 -5 -28 -2 -34 21 -41 23 -6
23 -7 -5 -5 -20 1 -31 8 -33 20 -5 25 16 47 42 46 20 -2 20 -2 -1 -6z m-1780
-10 c-7 -2 -21 -2 -30 0 -10 3 -4 5 12 5 17 0 24 -2 18 -5z m-1452 -27 c-10
-11 -8 -15 6 -19 11 -3 7 -5 -11 -6 -28 -1 -29 -1 -11 19 20 23 34 28 16 6z
m2932 7 c-7 -2 -19 -2 -25 0 -7 3 -2 5 12 5 14 0 19 -2 13 -5z m-2298 -23 c-3
-5 -14 -10 -23 -9 -14 0 -13 2 3 9 27 11 27 11 20 0z m78 -2 c-2 -5 -10 -8
-18 -8 -8 0 -16 3 -18 8 -3 4 5 7 18 7 13 0 21 -3 18 -7z m148 -6 c-7 -2 -18
1 -23 6 -8 8 -4 9 13 5 13 -4 18 -8 10 -11z m742 6 c-2 -5 -10 -8 -18 -8 -8 0
-16 3 -18 8 -3 4 5 7 18 7 13 0 21 -3 18 -7z m-5388 -98 c3 -5 26 -10 50 -10
39 0 45 -3 51 -24 3 -13 4 -38 2 -57 l-3 -34 -85 0 -85 0 -3 54 c-2 29 -1 60
2 67 6 16 62 19 71 4z m255 -40 c0 -5 -7 -7 -15 -4 -20 8 -19 -13 2 -24 23
-14 9 -42 -22 -42 -14 0 -25 5 -25 11 0 6 9 8 20 4 26 -8 26 11 0 25 -25 14
-15 40 16 40 13 0 24 -4 24 -10z m140 -1 c0 -5 -10 -8 -22 -6 -18 2 -23 -3
-23 -23 0 -21 4 -25 25 -22 18 2 22 0 13 -9 -6 -6 -21 -9 -34 -7 -19 2 -25 10
-27 36 -4 42 -26 37 -30 -6 -5 -45 -22 -40 -22 7 l0 39 60 0 c33 0 60 -4 60
-9z m3407 -19 c3 -10 2 -11 -4 -4 -4 6 -15 14 -23 17 -11 5 -9 6 4 4 11 -1 21
-9 23 -17z m-2 -60 c-3 -5 -14 -10 -23 -9 -14 0 -13 2 3 9 27 11 27 11 20 0z
m2345 -144 c0 -2 -9 -6 -20 -9 -11 -3 -18 -1 -14 4 5 9 34 13 34 5z m-1644
-67 c2 -31 1 -31 -3 -4 -3 16 -10 34 -16 38 -8 6 -7 7 3 4 9 -2 16 -17 16 -38z
m67 34 c-7 -2 -21 -2 -30 0 -10 3 -4 5 12 5 17 0 24 -2 18 -5z m75 0 c-10 -2
-26 -2 -35 0 -10 3 -2 5 17 5 19 0 27 -2 18 -5z m60 -4 c-10 -5 -18 -19 -18
-31 0 -15 5 -19 20 -15 11 3 18 1 14 -4 -3 -5 -11 -9 -19 -9 -7 0 -16 -8 -18
-17 -3 -10 -5 3 -6 29 -1 44 6 56 34 57 6 0 2 -4 -7 -10z m80 4 c-21 -5 -23
-19 -5 -26 9 -4 9 -6 0 -6 -15 -1 -26 16 -18 29 3 6 14 9 23 9 15 -1 15 -2 0
-6z m372 -22 c0 -16 6 -32 13 -34 6 -3 -1 -5 -18 -5 -16 0 -24 2 -17 5 6 2 12
15 12 28 0 13 -6 26 -12 28 -8 3 -6 6 5 6 12 1 17 -7 17 -28z m83 22 c-7 -2
-21 -2 -30 0 -10 3 -4 5 12 5 17 0 24 -2 18 -5z m77 3 c0 -2 -9 -6 -20 -9 -11
-3 -18 -1 -14 4 5 9 34 13 34 5z m68 -43 c-2 -34 -7 -48 -18 -49 -9 0 -10 1
-2 3 20 7 15 81 -5 86 -13 3 -12 5 5 6 21 1 23 -2 20 -46z m79 41 c-3 -3 -12
-4 -19 -1 -8 3 -5 6 6 6 11 1 17 -2 13 -5z m146 -1 c-7 -2 -19 -2 -25 0 -7 3
-2 5 12 5 14 0 19 -2 13 -5z m77 3 c0 -2 -9 -6 -20 -9 -11 -3 -18 -1 -14 4 5
9 34 13 34 5z m227 -2 c-3 -3 -12 -4 -19 -1 -8 3 -5 6 6 6 11 1 17 -2 13 -5z
m60 0 c-3 -3 -12 -4 -19 -1 -8 3 -5 6 6 6 11 1 17 -2 13 -5z m89 -35 c2 -31 1
-31 -3 -4 -3 16 -10 34 -16 38 -8 6 -7 7 3 4 9 -2 16 -17 16 -38z m134 12 c0
-16 6 -32 13 -34 6 -3 -1 -5 -18 -5 -16 0 -24 2 -17 5 6 2 12 15 12 28 0 13
-6 26 -12 28 -8 3 -6 6 5 6 12 1 17 -7 17 -28z m91 7 c-9 -25 -43 -32 -47 -10
-1 7 0 8 3 2 7 -15 33 -12 33 4 0 8 -8 17 -17 19 -11 3 -8 5 9 6 24 1 26 -2
19 -21z m-158 5 c-7 -2 -21 -2 -30 0 -10 3 -4 5 12 5 17 0 24 -2 18 -5z m-803
-13 c0 -5 -12 -10 -27 -9 l-28 1 25 8 c14 4 26 8 28 9 1 1 2 -3 2 -9z m140
-16 c0 -2 -9 0 -20 6 -11 6 -20 13 -20 16 0 2 9 0 20 -6 11 -6 20 -13 20 -16z
m230 16 c0 -5 -12 -10 -27 -9 l-28 1 25 8 c14 4 26 8 28 9 1 1 2 -3 2 -9z
m297 -12 c-3 -8 -6 -5 -6 6 -1 11 2 17 5 13 3 -3 4 -12 1 -19z m-5922 -23 c20
-20 25 -34 25 -78 0 -68 -12 -79 -82 -75 l-53 3 -3 74 c-2 41 -1 80 2 88 9 24
84 16 111 -12z m3733 18 c-10 -2 -26 -2 -35 0 -10 3 -2 5 17 5 19 0 27 -2 18
-5z m2162 -16 c11 -5 9 -6 -4 -4 -11 1 -21 9 -23 17 -3 10 -2 11 4 4 4 -6 15
-14 23 -17z m-1319 -5 c-7 -2 -18 1 -23 6 -8 8 -4 9 13 5 13 -4 18 -8 10 -11z
m660 0 c-7 -2 -18 1 -23 6 -8 8 -4 9 13 5 13 -4 18 -8 10 -11z m284 0 c-3 -3
-11 0 -18 7 -9 10 -8 11 6 5 10 -3 15 -9 12 -12z m86 0 c-7 -2 -18 1 -23 6 -8
8 -4 9 13 5 13 -4 18 -8 10 -11z m225 0 c-10 -2 -22 0 -28 6 -6 6 0 7 19 4 21
-5 23 -7 9 -10z m-5496 -52 c0 -33 -4 -60 -10 -60 -6 0 -10 27 -10 60 0 33 4
60 10 60 6 0 10 -27 10 -60z m50 50 c0 -5 -7 -10 -15 -10 -8 0 -15 5 -15 10 0
6 7 10 15 10 8 0 15 -4 15 -10z m410 0 c0 -5 -4 -10 -10 -10 -5 0 -10 5 -10
10 0 6 5 10 10 10 6 0 10 -4 10 -10z m3923 3 c-7 -2 -19 -2 -25 0 -7 3 -2 5
12 5 14 0 19 -2 13 -5z m454 1 c-3 -3 -12 -4 -19 -1 -8 3 -5 6 6 6 11 1 17 -2
13 -5z m210 0 c-3 -3 -12 -4 -19 -1 -8 3 -5 6 6 6 11 1 17 -2 13 -5z m837 -3
c3 -4 -6 -6 -19 -3 -14 2 -25 6 -25 8 0 8 39 4 44 -5z m-5708 -26 c9 -8 11
-15 5 -15 -15 0 -14 -43 2 -59 10 -10 8 -12 -8 -9 -14 2 -22 14 -25 38 -6 34
-3 60 7 60 2 0 11 -7 19 -15z m5691 -1 c-3 -3 -12 -4 -19 -1 -8 3 -5 6 6 6 11
1 17 -2 13 -5z m-5971 -15 c4 -8 9 -8 17 0 14 14 57 15 57 1 0 -5 -6 -7 -14
-4 -8 3 -17 1 -20 -5 -4 -5 3 -13 14 -16 30 -10 21 -39 -13 -43 -15 -2 -27 2
-27 8 0 7 8 9 20 5 23 -7 27 10 5 22 -21 12 -87 3 -82 -11 2 -6 14 -11 26 -10
11 0 21 -3 21 -8 0 -5 -15 -8 -32 -6 -26 2 -34 8 -36 26 -2 13 2 30 8 38 15
17 46 19 56 3z m144 -29 c0 -22 -4 -40 -10 -40 -5 0 -10 18 -10 40 0 22 5 40
10 40 6 0 10 -18 10 -40z m88 -2 c2 -22 -1 -38 -7 -38 -6 0 -11 16 -11 36 0
45 -24 42 -28 -4 -5 -46 -22 -39 -22 9 0 39 1 40 33 37 29 -3 32 -6 35 -40z
m108 26 c-9 -8 -16 -26 -16 -40 0 -13 -4 -24 -10 -24 -5 0 -10 18 -10 40 0 36
2 40 26 40 23 0 24 -1 10 -16z m84 7 c0 -5 -8 -7 -19 -4 -21 5 -34 -18 -24
-43 3 -9 13 -14 24 -11 11 3 19 1 19 -4 0 -13 -44 -11 -58 3 -15 15 -15 41 0
56 14 14 58 16 58 3z m110 -1 c0 -5 -10 -9 -22 -7 -18 2 -23 -3 -23 -23 0 -20
4 -25 23 -23 13 2 21 -1 17 -7 -3 -6 -14 -10 -24 -10 -35 0 -54 43 -29 68 14
14 58 16 58 2z m30 -38 c0 -49 -13 -72 -39 -72 -13 1 -13 2 2 11 12 7 17 23
17 59 0 28 5 50 10 50 6 0 10 -22 10 -48z m70 37 c0 -6 -9 -8 -20 -4 -11 3
-20 2 -20 -4 0 -5 9 -13 21 -16 29 -10 20 -39 -14 -43 -15 -2 -27 1 -27 6 0 6
9 8 20 5 11 -3 20 -1 20 5 0 6 -9 14 -20 17 -20 6 -26 25 -13 38 10 11 53 8
53 -4z m-710 -59 c0 -5 -4 -10 -10 -10 -5 0 -10 5 -10 10 0 6 5 10 10 10 6 0
10 -4 10 -10z m530 0 c0 -5 -4 -10 -10 -10 -5 0 -10 5 -10 10 0 6 5 10 10 10
6 0 10 -4 10 -10z m4188 -27 c-20 -5 -25 -33 -5 -33 9 0 9 -2 1 -8 -7 -4 -14
-18 -17 -32 -4 -25 -4 -25 -6 3 0 15 -7 27 -13 27 -9 0 -9 3 -2 8 6 4 13 15
17 25 3 9 14 16 24 16 17 -1 17 -2 1 -6z m212 -37 c0 -26 5 -46 13 -49 6 -3
-1 -5 -18 -5 -16 0 -24 2 -17 5 6 2 12 22 12 43 0 21 -6 41 -12 43 -8 3 -6 6
5 6 14 1 17 -7 17 -43z m240 -6 c0 -47 -2 -50 -25 -50 -21 0 -25 5 -25 31 0
22 5 32 20 36 11 3 20 12 20 19 0 8 2 14 5 14 3 0 5 -22 5 -50z m148 43 c-20
-5 -24 -33 -5 -34 10 0 10 -2 0 -6 -7 -2 -13 -16 -13 -29 0 -13 -4 -24 -10
-24 -5 0 -10 11 -10 25 0 14 -6 25 -12 25 -9 0 -9 3 -2 8 6 4 13 15 17 25 4
10 16 17 29 16 17 -1 18 -2 6 -6z m62 -3 c0 -5 -4 -10 -10 -10 -5 0 -10 5 -10
10 0 6 5 10 10 10 6 0 10 -4 10 -10z m458 3 c-20 -5 -24 -33 -5 -34 10 0 10
-2 0 -6 -7 -2 -13 -16 -13 -29 0 -13 -4 -24 -10 -24 -5 0 -10 11 -10 25 0 14
-6 25 -12 25 -9 0 -9 3 -2 8 6 4 13 15 17 25 4 10 16 17 29 16 17 -1 18 -2 6
-6z m62 -3 c0 -5 -4 -10 -10 -10 -5 0 -10 5 -10 10 0 6 5 10 10 10 6 0 10 -4
10 -10z m150 -9 c-13 -26 -13 -67 1 -93 9 -16 8 -19 -2 -16 -7 2 -19 18 -25
34 -10 23 -9 36 1 62 8 17 19 32 25 32 7 0 8 -6 0 -19z m82 10 c-8 -5 -14 -27
-14 -56 0 -29 6 -51 14 -57 9 -7 8 -8 -7 -6 -13 2 -21 12 -24 28 -1 14 -8 28
-15 32 -8 6 -8 8 2 8 6 0 12 11 12 23 0 28 7 37 29 37 13 0 13 -2 3 -9z
m-2559 -8 c-7 -2 -19 -2 -25 0 -7 3 -2 5 12 5 14 0 19 -2 13 -5z m2031 -3
c-12 -5 -25 -13 -29 -19 -11 -19 5 -51 28 -52 18 -1 19 -2 4 -6 -24 -6 -47 14
-47 41 0 28 18 46 45 45 19 0 19 0 -1 -9z m-1554 -14 c0 -2 -9 -6 -20 -9 -11
-3 -18 -1 -14 4 5 9 34 13 34 5z m150 0 c0 -2 -9 -6 -20 -9 -11 -3 -18 -1 -14
4 5 9 34 13 34 5z m73 -3 c3 -5 -5 -8 -18 -8 -13 0 -21 3 -18 8 2 4 10 7 18 7
8 0 16 -3 18 -7z m145 0 c-10 -2 -26 -2 -35 0 -10 3 -2 5 17 5 19 0 27 -2 18
-5z m152 3 c0 -2 -9 -6 -20 -9 -11 -3 -18 -1 -14 4 5 9 34 13 34 5z m74 -5 c4
-5 -3 -7 -14 -4 -23 6 -26 13 -6 13 8 0 17 -4 20 -9z m153 -31 c1 -19 -1 -27
-4 -17 -3 13 -11 17 -24 14 -10 -3 -17 -1 -13 4 3 5 12 9 20 9 20 0 18 17 -3
24 -14 4 -14 4 2 3 15 -2 20 -10 22 -37z m216 33 c-7 -2 -21 -2 -30 0 -10 3
-4 5 12 5 17 0 24 -2 18 -5z m235 -15 c3 -14 -3 -18 -24 -18 -30 0 -23 -14 11
-23 12 -3 8 -5 -10 -4 -31 2 -43 23 -31 53 8 21 50 14 54 -8z m132 -7 c0 -16
6 -32 13 -34 6 -3 -4 -5 -23 -5 -19 0 -29 2 -22 5 6 2 12 15 12 28 0 13 -6 26
-12 28 -7 3 -3 6 10 6 18 1 22 -4 22 -28z m87 -11 c1 -33 1 -34 -5 -6 -9 38
-26 40 -30 4 -5 -41 -22 -34 -22 8 0 33 2 35 28 32 23 -3 27 -8 29 -38z m73
36 c0 -2 3 -11 6 -19 4 -11 -2 -17 -23 -19 l-28 -4 25 -12 25 -12 -25 3 c-40
4 -41 67 0 67 11 0 20 -2 20 -4z m151 -12 c15 -19 2 -47 -26 -52 -25 -5 -38
13 -31 42 7 30 36 35 57 10z m77 -21 c2 -19 -1 -33 -7 -33 -6 0 -11 14 -11 31
0 39 -22 34 -31 -7 -6 -28 -7 -28 -8 7 -1 33 1 36 27 35 23 -1 27 -6 30 -33z
m132 8 c0 -16 6 -32 13 -34 6 -3 -4 -5 -23 -5 -19 0 -29 2 -22 5 6 2 12 15 12
28 0 13 -6 26 -12 28 -7 3 -3 6 10 6 18 1 22 -4 22 -28z m91 7 c-4 -13 -19
-26 -32 -29 -24 -7 -24 -7 3 -8 33 -1 43 -15 23 -31 -26 -22 -50 -8 -51 30 -1
50 5 60 37 60 25 0 27 -3 20 -22z m-2424 -4 c-3 -3 -12 -4 -19 -1 -8 3 -5 6 6
6 11 1 17 -2 13 -5z m493 -4 c0 -5 -12 -10 -27 -9 l-28 1 25 8 c14 4 26 8 28
9 1 1 2 -3 2 -9z m57 3 c-4 -3 1 -16 10 -27 18 -21 18 -21 -4 -2 -20 16 -23
36 -6 36 4 0 3 -3 0 -7z m526 -10 c-7 -2 -21 -2 -30 0 -10 3 -4 5 12 5 17 0
24 -2 18 -5z m-1068 -23 c-3 -5 -14 -10 -23 -9 -14 0 -13 2 3 9 27 11 27 11
20 0z m466 -8 c-7 -2 -18 1 -23 6 -8 8 -4 9 13 5 13 -4 18 -8 10 -11z m154 8
c-3 -5 -14 -10 -23 -9 -14 0 -13 2 3 9 27 11 27 11 20 0z m78 -2 c-2 -5 -10
-8 -18 -8 -8 0 -16 3 -18 8 -3 4 5 7 18 7 13 0 21 -3 18 -7z m148 -6 c-7 -2
-18 1 -23 6 -8 8 -4 9 13 5 13 -4 18 -8 10 -11z m144 8 c-3 -5 -14 -10 -23 -9
-14 0 -13 2 3 9 27 11 27 11 20 0z m71 -8 c-10 -2 -22 0 -28 6 -6 6 0 7 19 4
21 -5 23 -7 9 -10z m141 2 c-3 -3 -12 -4 -19 -1 -8 3 -5 6 6 6 11 1 17 -2 13
-5z m240 0 c-3 -3 -12 -4 -19 -1 -8 3 -5 6 6 6 11 1 17 -2 13 -5z m-5172 -139
c20 -20 25 -34 25 -78 0 -68 -12 -79 -82 -75 l-53 3 -3 74 c-2 41 -1 80 2 88
9 24 84 16 111 -12z m285 -5 c0 -5 -4 -10 -10 -10 -5 0 -10 5 -10 10 0 6 5 10
10 10 6 0 10 -4 10 -10z m90 0 c0 -5 -4 -10 -10 -10 -5 0 -10 5 -10 10 0 6 5
10 10 10 6 0 10 -4 10 -10z m4040 -34 c0 -26 5 -46 13 -49 6 -3 -1 -5 -18 -5
-16 0 -24 2 -17 5 6 2 12 22 12 43 0 21 -6 41 -12 43 -8 3 -6 6 5 6 14 1 17
-7 17 -43z m230 34 c0 -5 -4 -10 -10 -10 -5 0 -10 5 -10 10 0 6 5 10 10 10 6
0 10 -4 10 -10z m373 3 c-8 -3 -13 -25 -13 -58 0 -33 5 -55 13 -58 6 -3 2 -6
-10 -6 -22 -1 -23 3 -23 64 0 61 1 65 23 64 12 0 16 -3 10 -6z m443 -15 c-9
-12 -16 -32 -16 -43 0 -11 7 -31 16 -43 8 -12 11 -22 5 -22 -15 0 -41 41 -41
65 0 24 26 65 41 65 6 0 3 -10 -5 -22z m84 -43 c0 -13 -9 -33 -21 -46 -18 -21
-20 -21 -13 -4 10 26 10 74 0 100 -7 17 -5 17 13 -4 12 -13 21 -33 21 -46z
m70 0 c0 -61 -1 -65 -22 -64 -13 0 -17 3 -10 6 7 3 12 25 12 58 0 33 -5 55
-12 58 -7 3 -3 6 10 6 21 1 22 -3 22 -64z m-1880 51 c0 -2 -9 -6 -20 -9 -11
-3 -18 -1 -14 4 5 9 34 13 34 5z m1640 -6 c0 -5 8 -11 18 -11 16 -1 16 -2 0
-6 -11 -3 -18 -14 -18 -28 0 -14 7 -26 18 -29 10 -3 6 -4 -8 -3 -19 2 -26 8
-28 30 -2 15 -8 27 -13 27 -11 0 12 29 24 30 4 0 7 -4 7 -10z m-5044 -15 c9
-8 11 -15 5 -15 -15 0 -14 -57 2 -63 6 -3 2 -6 -10 -6 -20 -1 -23 4 -23 34 0
19 -4 35 -10 35 -5 0 -10 -16 -10 -35 0 -19 -4 -35 -10 -35 -5 0 -10 18 -10
40 0 33 3 40 20 40 11 0 20 5 20 10 0 14 9 12 26 -5z m4029 -30 c0 -23 -5 -31
-22 -33 -12 -2 -24 -11 -26 -20 -3 -9 -5 6 -6 34 -1 49 0 51 27 50 23 -1 27
-5 27 -31z m123 -23 c8 -2 12 7 12 27 0 17 5 31 10 31 6 0 10 -16 10 -36 0
-33 -2 -35 -27 -32 -24 3 -28 8 -30 38 -1 33 -1 33 5 6 4 -16 13 -31 20 -34z
m105 37 c-4 -12 -15 -24 -27 -27 -20 -6 -20 -6 4 -12 36 -9 32 -35 -5 -35 -29
0 -30 2 -28 40 0 22 1 43 2 48 1 4 14 7 30 7 25 0 28 -3 24 -21z m57 -8 c0
-16 6 -32 13 -34 6 -3 -4 -5 -23 -5 -19 0 -29 2 -22 5 6 2 12 15 12 28 0 13
-6 26 -12 28 -7 3 -3 6 10 6 18 1 22 -4 22 -28z m87 -11 c1 -33 1 -34 -5 -6
-9 38 -26 40 -30 4 -5 -41 -22 -34 -22 8 0 33 2 35 28 32 23 -3 27 -8 29 -38z
m61 33 c-22 -6 -23 -19 -3 -27 27 -10 18 -36 -12 -35 -24 2 -25 2 -5 6 24 5
31 23 8 23 -8 0 -18 5 -21 10 -10 16 4 30 28 29 17 -1 18 -2 5 -6z m72 -3 c0
-5 -4 -10 -10 -10 -5 0 -10 5 -10 10 0 6 5 10 10 10 6 0 10 -4 10 -10z m244
-5 c3 -8 1 -15 -4 -15 -6 0 -10 5 -10 11 0 23 -25 1 -31 -27 -7 -28 -7 -28 -8
6 -1 31 2 36 23 38 13 1 27 -5 30 -13z m66 11 c0 -2 3 -11 6 -19 4 -11 -2 -17
-23 -19 l-28 -4 25 -12 25 -12 -25 3 c-40 4 -41 67 0 67 11 0 20 -2 20 -4z
m78 -34 c3 -31 2 -33 -25 -30 -35 4 -37 30 -3 39 l25 6 -25 12 -25 11 25 -3
c20 -2 26 -8 28 -35z m55 28 c-13 -5 -23 -16 -23 -25 0 -9 10 -20 23 -25 22
-10 22 -10 -3 -7 -42 4 -40 68 2 66 l23 0 -22 -9z m-5063 -48 c0 -26 -5 -53
-12 -60 -14 -14 -54 -16 -63 -3 -3 6 7 9 21 8 36 -3 43 21 7 25 -55 6 -38 78
18 78 28 0 29 -2 29 -48z m130 8 c0 -22 -4 -40 -10 -40 -5 0 -10 18 -10 40 0
22 5 40 10 40 6 0 10 -18 10 -40z m88 -17 c-3 -57 -3 -58 -35 -61 -18 -2 -33
1 -33 6 0 5 10 8 21 8 12 -1 24 5 26 12 3 7 -3 12 -14 12 -37 0 -57 42 -31 68
7 7 25 12 40 12 29 0 29 0 26 -57z m90 15 c2 -22 -1 -38 -7 -38 -6 0 -11 16
-11 36 0 45 -24 42 -28 -4 -5 -46 -22 -39 -22 9 0 39 1 40 33 37 29 -3 32 -6
35 -40z m96 20 c14 -23 -3 -52 -33 -56 -42 -6 -67 38 -39 66 17 17 58 11 72
-10z m54 11 c-11 -6 -18 -22 -18 -39 0 -17 -4 -30 -10 -30 -5 0 -10 18 -10 40
0 37 2 40 28 40 23 -1 24 -2 10 -11z m80 -1 c20 -20 14 -28 -19 -28 -20 0 -29
-4 -26 -12 2 -7 14 -13 26 -12 11 0 21 -3 21 -8 0 -5 -15 -8 -32 -6 -26 2 -34
8 -36 26 -6 42 37 69 66 40z m2909 -20 c-3 -7 -5 -2 -5 12 0 14 2 19 5 13 2
-7 2 -19 0 -25z m40 26 c-3 -3 -12 -4 -19 -1 -8 3 -5 6 6 6 11 1 17 -2 13 -5z
m1133 -44 c0 -5 -4 -10 -10 -10 -5 0 -10 5 -10 10 0 6 5 10 10 10 6 0 10 -4
10 -10z m818 -7 c-2 -10 -12 -19 -23 -21 -15 -2 -17 -1 -6 6 7 6 10 15 7 21
-4 6 0 11 9 11 10 0 15 -7 13 -17z m-5528 -13 c0 -5 -4 -10 -10 -10 -5 0 -10
5 -10 10 0 6 5 10 10 10 6 0 10 -4 10 -10z m4040 -134 c0 -14 5 -28 11 -32 8
-4 8 -9 0 -17 -6 -6 -11 -21 -11 -34 0 -17 -6 -23 -22 -23 -20 0 -21 1 -4 13
12 9 18 26 18 52 0 26 -6 43 -18 52 -17 12 -16 13 4 13 17 0 22 -6 22 -24z
m74 2 c9 -12 16 -32 16 -43 0 -24 -26 -65 -41 -65 -6 0 -3 10 5 22 9 12 16 32
16 43 0 11 -7 31 -16 43 -8 12 -11 22 -5 22 5 0 17 -10 25 -22z m-541 5 c-7
-2 -21 -2 -30 0 -10 3 -4 5 12 5 17 0 24 -2 18 -5z m-3728 -128 c20 -20 25
-34 25 -78 0 -68 -12 -79 -82 -75 l-53 3 -3 74 c-2 41 -1 80 2 88 9 24 84 16
111 -12z m985 -56 l0 -60 -31 3 c-58 6 -66 68 -10 76 13 2 21 11 21 23 0 10 5
19 10 19 6 0 10 -27 10 -61z m-780 36 c10 -12 10 -18 0 -30 -10 -12 -9 -20 4
-40 13 -20 14 -25 3 -25 -8 0 -19 11 -25 25 -6 14 -16 25 -22 25 -5 0 -10 -11
-10 -25 0 -14 -4 -25 -10 -25 -5 0 -10 25 -10 55 0 54 1 55 29 55 16 0 34 -7
41 -15z m73 8 c-15 -3 -23 -12 -23 -24 0 -13 7 -19 23 -20 l22 -2 -22 -4 c-33
-6 -31 -43 1 -43 20 0 27 9 42 50 10 28 23 50 30 50 7 0 21 -24 32 -52 21 -55
20 -76 -2 -45 -16 21 -56 23 -56 2 0 -11 -12 -15 -45 -15 l-45 0 0 55 0 55 33
-1 c23 -1 26 -3 10 -6z m215 -5 c17 -17 15 -64 -4 -82 -8 -9 -29 -16 -45 -16
-29 0 -29 1 -29 55 l0 55 33 0 c18 0 38 -5 45 -12z m71 -30 l19 -43 17 43 c25
61 45 55 45 -13 0 -30 -4 -55 -10 -55 -5 0 -10 17 -11 38 l0 37 -16 -37 c-18
-45 -27 -47 -47 -10 l-15 27 -1 -27 c0 -16 -4 -28 -10 -28 -5 0 -10 25 -10 55
0 66 14 71 39 13z m144 35 c-15 -3 -23 -12 -23 -24 0 -13 7 -19 23 -20 l22 -2
-22 -4 c-15 -3 -23 -12 -23 -25 0 -18 4 -20 40 -14 25 4 40 2 40 -4 0 -5 -22
-10 -50 -10 l-50 0 0 55 0 55 33 -1 c23 -1 26 -3 10 -6z m185 -65 c2 -21 -1
-38 -7 -38 -5 0 -11 15 -13 33 -2 17 -7 32 -13 32 -5 0 -11 -15 -13 -32 -2
-18 -7 -33 -12 -33 -5 0 -10 15 -12 33 -2 17 -7 32 -13 32 -5 0 -11 -15 -13
-32 -5 -47 -22 -41 -22 7 l0 40 58 -2 57 -3 3 -37z m-893 -283 c20 -20 25 -34
25 -78 0 -68 -12 -79 -82 -75 l-53 3 -3 74 c-2 41 -1 80 2 88 9 24 84 16 111
-12z m155 -5 c0 -5 -4 -10 -10 -10 -5 0 -10 5 -10 10 0 6 5 10 10 10 6 0 10
-4 10 -10z m180 -51 l0 -60 -31 3 c-58 6 -66 68 -10 76 13 2 21 11 21 23 0 10
5 19 10 19 6 0 10 -27 10 -61z m230 42 c0 -13 8 -21 23 -23 18 -2 23 -10 25
-40 2 -22 -1 -38 -7 -38 -6 0 -11 16 -11 36 0 45 -24 42 -28 -4 -6 -56 -22
-34 -22 28 0 33 4 60 10 60 6 0 10 -9 10 -19z m280 -41 c0 -33 -4 -60 -10 -60
-6 0 -10 27 -10 60 0 33 4 60 10 60 6 0 10 -27 10 -60z m-184 25 c9 -8 11 -15
5 -15 -15 0 -14 -57 2 -64 6 -3 3 -5 -8 -3 -14 2 -22 12 -25 37 -6 34 -3 60 7
60 2 0 11 -7 19 -15z m-506 -45 c0 -22 -4 -40 -10 -40 -5 0 -10 18 -10 40 0
22 5 40 10 40 6 0 10 -18 10 -40z m88 -2 c2 -22 -1 -38 -7 -38 -6 0 -11 16
-11 36 0 45 -24 42 -28 -4 -5 -46 -22 -39 -22 9 0 39 1 40 33 37 29 -3 32 -6
35 -40z m215 28 c6 -8 10 -7 14 2 2 6 11 12 19 12 11 0 12 -4 3 -19 -15 -23
-5 -53 16 -45 8 3 15 1 15 -5 0 -15 -47 -14 -53 2 -4 8 -8 9 -14 1 -4 -6 -27
-12 -50 -12 -33 -2 -45 3 -53 18 -19 35 3 60 53 58 23 0 46 -6 50 -12z m345
-28 c2 -22 -1 -38 -7 -38 -6 0 -11 16 -11 36 0 45 -24 42 -28 -4 -4 -44 -22
-40 -22 4 0 45 -24 42 -28 -4 -5 -46 -22 -39 -22 8 l0 40 58 -2 57 -3 3 -37z
m-803 -283 c20 -20 25 -34 25 -78 0 -68 -12 -79 -82 -75 l-53 3 -3 74 c-2 41
-1 80 2 88 9 24 84 16 111 -12z m405 -27 c0 -25 3 -29 12 -20 20 20 32 13 13
-8 -15 -16 -15 -22 -5 -35 16 -19 30 -19 30 0 0 8 11 17 25 21 14 3 22 10 19
16 -3 5 -12 7 -20 4 -8 -3 -14 -1 -14 5 0 6 12 9 28 7 23 -3 27 -8 30 -41 l3
-37 -48 1 c-26 1 -54 6 -60 12 -9 6 -13 6 -13 -1 0 -6 -20 -10 -47 -9 -45 2
-48 4 -51 31 -4 31 10 46 46 46 15 0 22 6 22 20 0 11 7 20 15 20 10 0 15 -10
15 -32z m390 -28 c0 -33 -4 -60 -10 -60 -6 0 -10 27 -10 60 0 33 4 60 10 60 6
0 10 -27 10 -60z m210 28 c0 -25 3 -29 12 -20 20 20 32 13 13 -8 -15 -16 -16
-22 -5 -35 7 -9 21 -13 31 -10 11 4 19 2 19 -4 0 -15 -43 -14 -58 1 -8 8 -12
9 -12 1 0 -7 -18 -11 -47 -10 -45 2 -48 4 -51 31 -4 31 10 46 46 46 15 0 22 6
22 20 0 11 7 20 15 20 10 0 15 -10 15 -32z m110 22 c0 -5 -4 -10 -10 -10 -5 0
-10 5 -10 10 0 6 5 10 10 10 6 0 10 -4 10 -10z m-902 -58 c4 -28 -14 -52 -39
-52 -12 0 -19 -7 -19 -20 0 -11 -4 -20 -10 -20 -6 0 -10 27 -10 61 l0 60 38
-3 c30 -2 38 -7 40 -26z m80 -14 c3 -38 3 -38 -33 -38 -32 0 -36 3 -33 22 2
14 12 24 28 28 15 4 20 9 13 13 -6 4 -19 4 -29 0 -12 -4 -15 -3 -10 6 4 7 20
11 34 9 23 -3 27 -8 30 -40z m322 -6 c0 -26 -5 -53 -12 -60 -14 -14 -54 -16
-63 -3 -3 6 7 9 21 8 36 -3 43 21 7 25 -55 6 -38 78 18 78 28 0 29 -2 29 -48z
m88 26 c3 -14 -3 -18 -27 -18 -24 0 -29 -4 -24 -16 3 -9 13 -14 24 -11 11 3
19 1 19 -4 0 -13 -44 -11 -58 3 -16 16 -15 41 0 56 18 18 62 11 66 -10z m186
0 c15 -24 -3 -52 -37 -56 -33 -4 -53 28 -37 59 14 25 58 23 74 -3z m226 -26
c0 -49 -13 -72 -39 -72 -13 1 -13 2 2 11 12 7 17 23 17 59 0 28 5 50 10 50 6
0 10 -22 10 -48z m70 37 c0 -6 -9 -8 -20 -4 -11 3 -20 2 -20 -4 0 -5 9 -13 21
-16 29 -10 20 -39 -14 -43 -15 -2 -27 1 -27 6 0 6 9 8 20 5 11 -3 20 -1 20 5
0 6 -9 14 -20 17 -20 6 -26 25 -13 38 10 11 53 8 53 -4z m88 -26 c3 -28 -1
-33 -22 -39 -39 -9 -56 2 -56 35 0 32 12 41 50 38 20 -2 26 -8 28 -34z m90 -5
c2 -21 -1 -38 -7 -38 -5 0 -11 14 -13 32 -4 46 -28 49 -28 4 0 -25 -4 -36 -15
-36 -11 0 -15 11 -15 41 l0 40 38 -3 c35 -3 37 -5 40 -40z m-605 5 c-7 -2 -21
-2 -30 0 -10 3 -4 5 12 5 17 0 24 -2 18 -5z m-758 -288 c20 -20 25 -34 25 -78
0 -68 -12 -79 -82 -75 l-53 3 -3 74 c-2 41 -1 80 2 88 9 24 84 16 111 -12z
m405 -27 c0 -25 3 -29 12 -20 20 20 32 13 13 -8 -15 -16 -15 -22 -5 -35 16
-19 30 -19 30 0 0 8 11 17 25 21 14 3 22 10 19 16 -3 5 -12 7 -20 4 -8 -3 -14
-1 -14 5 0 6 12 9 28 7 23 -3 27 -8 30 -41 l3 -37 -48 1 c-26 1 -54 6 -60 12
-9 6 -13 6 -13 -1 0 -6 -20 -10 -47 -9 -45 2 -48 4 -51 31 -4 31 10 46 46 46
15 0 22 6 22 20 0 11 7 20 15 20 10 0 15 -10 15 -32z m370 22 c0 -5 -7 -10
-15 -10 -8 0 -15 5 -15 10 0 6 7 10 15 10 8 0 15 -4 15 -10z m-562 -58 c4 -28
-14 -52 -39 -52 -12 0 -19 -7 -19 -20 0 -11 -4 -20 -10 -20 -6 0 -10 27 -10
61 l0 60 38 -3 c30 -2 38 -7 40 -26z m80 -14 c3 -38 3 -38 -33 -38 -32 0 -36
3 -33 22 2 14 12 24 28 28 15 4 20 9 13 13 -6 4 -19 4 -29 0 -12 -4 -15 -3
-10 6 4 7 20 11 34 9 23 -3 27 -8 30 -40z m322 -6 c0 -26 -5 -53 -12 -60 -14
-14 -54 -16 -63 -3 -3 6 7 9 21 8 36 -3 43 21 7 25 -55 6 -38 78 18 78 28 0
29 -2 29 -48z m88 26 c3 -14 -3 -18 -27 -18 -24 0 -29 -4 -24 -16 3 -9 13 -14
24 -11 11 3 19 1 19 -4 0 -13 -44 -11 -58 3 -16 16 -15 41 0 56 18 18 62 11
66 -10z m60 -35 c-3 -54 -5 -58 -28 -60 -14 -1 -18 0 -7 3 13 4 17 17 17 60 0
31 4 54 10 54 7 0 10 -22 8 -57z m82 46 c0 -6 -9 -8 -20 -4 -24 8 -27 -10 -3
-24 13 -7 20 -4 28 12 13 27 63 30 79 5 22 -36 -35 -76 -69 -48 -9 7 -15 8
-20 0 -8 -12 -55 -14 -55 -1 0 5 9 7 20 4 11 -3 20 -1 20 5 0 6 -9 14 -20 17
-20 6 -26 25 -13 38 10 11 53 8 53 -4z m168 -31 c2 -22 -1 -38 -7 -38 -6 0
-11 16 -11 36 0 45 -24 42 -28 -4 -5 -46 -22 -39 -22 9 0 39 1 40 33 37 29 -3
32 -6 35 -40z m-278 -28 c0 -5 -4 -10 -10 -10 -5 0 -10 5 -10 10 0 6 5 10 10
10 6 0 10 -4 10 -10z m-735 -255 c20 -20 25 -34 25 -78 0 -68 -12 -79 -82 -75
l-53 3 -3 74 c-2 41 -1 80 2 88 9 24 84 16 111 -12z m1005 -6 c0 -6 -9 -8 -21
-4 -16 5 -20 3 -19 -12 6 -51 -1 -93 -14 -93 -18 0 -25 64 -12 98 7 15 18 22
38 22 15 0 28 -5 28 -11z m170 1 c0 -5 -7 -10 -15 -10 -8 0 -15 5 -15 10 0 6
7 10 15 10 8 0 15 -4 15 -10z m-754 -25 c9 -8 11 -15 5 -15 -15 0 -14 -57 2
-63 6 -3 2 -6 -10 -6 -19 -1 -23 4 -23 32 0 31 -3 34 -30 34 -34 0 -40 -13 -9
-22 29 -10 20 -39 -14 -43 -15 -2 -27 1 -27 6 0 6 9 8 20 5 26 -7 26 14 -1 22
-34 11 -19 40 24 43 20 2 37 7 37 13 0 13 9 11 26 -6z m-208 -33 c4 -28 -14
-52 -39 -52 -12 0 -19 -7 -19 -20 0 -11 -4 -20 -10 -20 -6 0 -10 27 -10 61 l0
60 38 -3 c30 -2 38 -7 40 -26z m90 -9 c3 -28 -1 -33 -22 -39 -39 -9 -56 2 -56
35 0 32 12 41 50 38 20 -2 26 -8 28 -34z m262 27 c0 -5 -6 -7 -14 -4 -8 3 -17
1 -20 -5 -4 -5 3 -13 14 -16 13 -4 20 -14 18 -23 -2 -13 -15 -17 -53 -19 -27
-1 -55 3 -62 9 -16 13 -17 40 -2 55 14 14 119 16 119 3z m70 -1 c0 -6 -9 -8
-20 -4 -11 3 -20 2 -20 -4 0 -5 9 -13 21 -16 29 -10 20 -39 -14 -43 -15 -2
-27 1 -27 6 0 6 9 8 20 5 11 -3 20 -1 20 5 0 6 -9 14 -20 17 -20 6 -26 25 -13
38 10 11 53 8 53 -4z m110 1 c0 -5 -10 -9 -22 -7 -24 2 -38 -27 -21 -44 14
-14 43 0 43 21 0 40 62 53 84 18 21 -35 -38 -78 -66 -50 -7 7 -17 7 -29 -1
-36 -22 -76 26 -49 58 14 17 60 20 60 5z m168 -32 c2 -22 -1 -38 -7 -38 -6 0
-11 16 -11 36 0 45 -24 42 -28 -4 -5 -46 -22 -39 -22 9 0 39 1 40 33 37 29 -3
32 -6 35 -40z m92 2 c0 -22 -4 -40 -10 -40 -5 0 -10 18 -10 40 0 22 5 40 10
40 6 0 10 -18 10 -40z m88 -17 c-3 -57 -3 -58 -35 -61 -18 -2 -33 1 -33 6 0 5
10 8 21 8 12 -1 24 5 26 12 3 7 -3 12 -14 12 -23 0 -43 18 -43 40 0 24 21 40
52 40 29 0 29 0 26 -57z m82 23 c0 -49 -16 -86 -37 -85 -11 0 -13 3 -5 6 7 3
12 25 12 59 0 41 4 54 15 54 10 0 15 -10 15 -34z m70 23 c0 -6 -9 -8 -20 -4
-27 8 -26 -9 2 -27 12 -8 18 -19 14 -26 -8 -14 -56 -16 -56 -3 0 5 9 7 20 4
11 -3 20 -1 20 5 0 6 -9 14 -20 17 -20 6 -26 25 -13 38 10 11 53 8 53 -4z
m-580 -59 c0 -5 -4 -10 -10 -10 -5 0 -10 5 -10 10 0 6 5 10 10 10 6 0 10 -4
10 -10z m470 0 c0 -5 -4 -10 -10 -10 -5 0 -10 5 -10 10 0 6 5 10 10 10 6 0 10
-4 10 -10z m-1135 -255 c20 -20 25 -34 25 -78 0 -68 -12 -79 -82 -75 l-53 3
-3 74 c-2 41 -1 80 2 88 9 24 84 16 111 -12z m295 -5 c0 -5 -7 -10 -15 -10 -8
0 -15 5 -15 10 0 6 7 10 15 10 8 0 15 -4 15 -10z m30 -50 c0 -33 -4 -60 -10
-60 -6 0 -10 27 -10 60 0 33 4 60 10 60 6 0 10 -27 10 -60z m160 50 c0 -5 -7
-10 -15 -10 -8 0 -15 5 -15 10 0 6 7 10 15 10 8 0 15 -4 15 -10z m180 -50 l0
-60 -33 0 c-18 0 -38 5 -45 12 -9 9 -12 9 -12 0 0 -7 -4 -12 -10 -12 -5 0 -10
13 -10 29 0 17 -5 33 -11 37 -14 8 -29 -14 -29 -43 0 -13 -4 -23 -10 -23 -5 0
-10 18 -10 40 0 39 1 40 34 40 23 0 36 -6 41 -17 6 -17 7 -17 16 0 6 9 19 17
29 17 13 0 20 7 20 20 0 11 7 20 15 20 12 0 15 -13 15 -60z m370 49 c0 -6 -9
-8 -20 -4 -14 5 -20 2 -20 -9 0 -9 9 -16 20 -16 17 0 20 -7 20 -40 0 -22 -4
-40 -10 -40 -5 0 -10 16 -10 35 0 19 -4 35 -10 35 -5 0 -10 -16 -10 -35 0 -19
-4 -35 -10 -35 -5 0 -10 16 -10 35 0 21 -5 35 -12 35 -9 0 -9 3 -2 8 6 4 13
15 17 25 7 18 57 24 57 6z m170 1 c0 -5 -4 -10 -10 -10 -5 0 -10 5 -10 10 0 6
5 10 10 10 6 0 10 -4 10 -10z m-1044 -25 c9 -8 11 -15 5 -15 -15 0 -14 -43 2
-59 10 -10 8 -12 -8 -9 -14 2 -22 14 -25 38 -6 34 -3 60 7 60 2 0 11 -7 19
-15z m92 -47 c3 -38 3 -38 -33 -38 -32 0 -36 3 -33 22 2 14 12 24 28 28 15 4
20 9 13 13 -6 4 -19 4 -29 0 -12 -4 -15 -3 -10 6 4 7 20 11 34 9 23 -3 27 -8
30 -40z m32 2 c0 -22 -4 -40 -10 -40 -5 0 -10 18 -10 40 0 22 5 40 10 40 6 0
10 -18 10 -40z m77 13 l7 -28 6 24 c8 33 27 38 36 9 l7 -23 8 23 c5 13 17 22
29 22 17 0 20 -6 20 -40 0 -51 -20 -53 -21 -2 l-2 37 -10 -37 c-12 -42 -31
-50 -41 -15 l-7 22 -9 -22 c-5 -13 -14 -23 -19 -23 -5 0 -13 10 -16 23 -4 12
-9 30 -11 40 -3 9 -1 17 5 17 6 0 14 -12 18 -27z m413 18 c0 -5 -8 -7 -19 -4
-11 3 -21 -2 -24 -11 -10 -25 3 -48 24 -43 11 3 19 1 19 -4 0 -13 -44 -11 -58
3 -15 15 -15 41 0 56 14 14 58 16 58 3z m84 -13 c15 -24 -3 -52 -37 -56 -33
-4 -53 28 -37 59 14 25 58 23 74 -3z m90 6 c9 -25 7 -64 -4 -64 -5 0 -10 13
-10 29 0 17 -5 33 -11 37 -14 8 -29 -14 -29 -43 0 -13 -4 -23 -10 -23 -5 0
-10 18 -10 40 0 39 1 40 34 40 22 0 36 -6 40 -16z m186 -25 c0 -56 -14 -79
-50 -79 -17 0 -30 4 -30 10 0 5 10 9 21 7 12 -1 24 4 26 11 3 7 -4 12 -15 12
-31 0 -47 26 -34 55 9 20 19 25 47 25 34 0 35 -1 35 -41z m70 -7 c0 -49 -13
-72 -39 -72 -13 1 -13 2 2 11 12 7 17 23 17 59 0 28 5 50 10 50 6 0 10 -22 10
-48z m70 37 c0 -6 -9 -8 -20 -4 -11 3 -20 2 -20 -4 0 -5 9 -13 21 -16 29 -10
20 -39 -14 -43 -15 -2 -27 1 -27 6 0 6 9 8 20 5 11 -3 20 -1 20 5 0 6 -9 14
-20 17 -20 6 -26 25 -13 38 10 11 53 8 53 -4z m-580 -59 c0 -5 -4 -10 -10 -10
-5 0 -10 5 -10 10 0 6 5 10 10 10 6 0 10 -4 10 -10z m470 0 c0 -5 -4 -10 -10
-10 -5 0 -10 5 -10 10 0 6 5 10 10 10 6 0 10 -4 10 -10z m-1165 -255 c20 -20
25 -34 25 -78 0 -68 -12 -79 -82 -75 l-53 3 -3 74 c-2 41 -1 80 2 88 9 24 84
16 111 -12z m235 -15 c0 -5 -7 -10 -15 -10 -8 0 -15 5 -15 10 0 6 7 10 15 10
8 0 15 -4 15 -10z m510 -1 c0 -6 -8 -8 -19 -4 -23 7 -39 -14 -20 -26 10 -6 11
-9 2 -9 -8 0 -13 -14 -13 -35 0 -48 -17 -44 -22 5 -5 59 6 80 42 80 16 0 30
-5 30 -11z m170 1 c0 -5 -7 -10 -15 -10 -8 0 -15 5 -15 10 0 6 7 10 15 10 8 0
15 -4 15 -10z m-634 -25 c9 -8 11 -15 5 -15 -15 0 -14 -57 2 -63 6 -3 2 -6
-10 -6 -20 -1 -23 4 -23 34 0 19 -4 35 -10 35 -5 0 -10 -16 -10 -35 0 -24 -5
-35 -15 -35 -11 0 -15 11 -16 38 l0 37 -16 -37 c-19 -47 -30 -48 -49 -3 -17
40 -17 45 -5 45 5 0 14 -12 19 -27 l10 -28 11 28 c9 22 17 27 46 27 19 0 35 5
35 10 0 14 9 12 26 -5z m92 -27 c3 -14 -3 -18 -27 -18 -24 0 -29 -4 -24 -16 3
-9 13 -14 24 -11 11 3 19 1 19 -4 0 -13 -44 -11 -58 3 -16 16 -15 41 0 56 18
18 62 11 66 -10z m112 12 c0 -5 -10 -9 -22 -7 -24 2 -38 -27 -21 -44 14 -14
43 0 43 21 0 24 24 42 52 38 19 -2 23 -9 23 -38 0 -29 -4 -36 -23 -38 -13 -2
-29 1 -36 7 -9 7 -16 7 -23 0 -6 -6 -21 -9 -34 -7 -18 2 -25 10 -27 32 -2 16
2 32 10 37 18 12 58 11 58 -1z m168 -32 c2 -22 -1 -38 -7 -38 -6 0 -11 16 -11
36 0 45 -24 42 -28 -4 -5 -46 -22 -39 -22 9 0 39 1 40 33 37 29 -3 32 -6 35
-40z m92 2 c0 -22 -4 -40 -10 -40 -5 0 -10 18 -10 40 0 22 5 40 10 40 6 0 10
-18 10 -40z m90 -8 c0 -26 -5 -53 -12 -60 -14 -14 -54 -16 -63 -3 -3 6 7 9 21
8 36 -3 43 21 7 25 -55 6 -38 78 18 78 28 0 29 -2 29 -48z m68 -9 c-3 -54 -5
-58 -28 -60 -14 -1 -18 0 -7 3 13 4 17 17 17 60 0 31 4 54 10 54 7 0 10 -22 8
-57z m72 47 c0 -5 -7 -7 -15 -4 -20 8 -19 -13 2 -24 23 -14 9 -42 -22 -42 -14
0 -25 5 -25 11 0 6 9 8 20 4 26 -8 26 11 0 25 -25 14 -15 40 16 40 13 0 24 -4
24 -10z m-570 -60 c0 -5 -4 -10 -10 -10 -5 0 -10 5 -10 10 0 6 5 10 10 10 6 0
10 -4 10 -10z m470 0 c0 -5 -7 -10 -15 -10 -8 0 -15 5 -15 10 0 6 7 10 15 10
8 0 15 -4 15 -10z m-1035 -249 c6 -5 26 -11 45 -14 20 -2 6 -4 -32 -5 -94 -3
-87 -22 8 -22 l75 0 -3 -42 -3 -43 -80 0 -80 0 -3 54 c-2 29 -1 60 2 67 6 16
57 19 71 5z m255 -41 c0 -5 -7 -7 -15 -4 -20 8 -19 -13 2 -24 23 -14 9 -42
-22 -42 -14 0 -25 5 -25 11 0 6 9 8 20 4 26 -8 26 11 0 25 -25 14 -15 40 16
40 13 0 24 -4 24 -10z m88 -12 c3 -14 -3 -18 -27 -18 -24 0 -29 -4 -24 -16 3
-9 13 -14 24 -11 11 3 19 1 19 -4 0 -13 -44 -11 -58 3 -16 16 -15 41 0 56 18
18 62 11 66 -10z m87 -5 l7 -28 10 28 c5 15 14 27 19 27 12 0 11 -7 -3 -47
-16 -43 -33 -42 -48 3 -14 42 -34 40 -38 -4 -5 -46 -22 -39 -22 8 0 39 1 40
34 40 28 0 35 -4 41 -27z m123 5 c3 -14 -3 -18 -27 -18 -24 0 -29 -4 -24 -16
4 -11 13 -14 30 -9 16 4 22 2 18 -5 -11 -18 -54 -11 -65 10 -16 31 4 62 38 58
16 -2 28 -10 30 -20z m48 6 c-9 -8 -16 -26 -16 -40 0 -13 -4 -24 -10 -24 -5 0
-10 18 -10 40 0 36 2 40 26 40 23 0 24 -1 10 -16z m-511 -314 c3 -5 26 -10 50
-10 39 0 45 -3 51 -24 3 -13 4 -38 2 -57 l-3 -34 -85 0 -85 0 -3 54 c-2 29 -1
60 2 67 6 16 62 19 71 4z m535 -1 c0 -7 -10 -9 -25 -5 -18 5 -25 2 -25 -9 0
-8 9 -15 20 -15 17 0 20 -7 20 -40 0 -22 -4 -40 -10 -40 -5 0 -10 16 -10 35 0
19 -4 35 -10 35 -5 0 -10 -16 -10 -35 0 -48 -17 -44 -22 5 -5 59 6 80 42 80
16 0 30 -5 30 -11z m-270 -39 c0 -5 -6 -7 -13 -4 -8 3 -20 -2 -27 -11 -10 -12
-10 -18 0 -30 7 -9 19 -14 27 -11 7 3 13 1 13 -4 0 -6 -11 -10 -25 -10 -31 0
-50 32 -35 60 11 20 60 29 60 10z m88 -27 c3 -28 -1 -33 -22 -39 -39 -9 -56 2
-56 35 0 32 12 41 50 38 20 -2 26 -8 28 -34z m90 -5 c2 -21 -1 -38 -7 -38 -5
0 -11 14 -13 32 -4 46 -28 49 -28 4 0 -25 -4 -36 -15 -36 -11 0 -15 11 -15 41
l0 40 38 -3 c35 -3 37 -5 40 -40z m182 -6 c0 -26 -5 -53 -12 -60 -15 -15 -68
-16 -68 -1 0 6 9 8 21 4 14 -5 25 -2 30 6 6 10 1 15 -19 19 -19 4 -28 12 -30
28 -6 39 5 52 43 52 l35 0 0 -48z m60 -332 c0 -47 -3 -60 -15 -60 -12 0 -15
13 -15 60 0 47 3 60 15 60 12 0 15 -13 15 -60z m30 0 c0 -33 -4 -60 -10 -60
-6 0 -10 27 -10 60 0 33 4 60 10 60 6 0 10 -27 10 -60z m-224 25 c9 -8 11 -15
5 -15 -15 0 -14 -57 2 -63 6 -3 2 -6 -10 -6 -20 -1 -23 4 -23 34 0 19 -4 35
-10 35 -5 0 -10 -16 -10 -35 0 -44 -18 -46 -22 -3 -4 46 -28 49 -28 4 0 -25
-4 -36 -15 -36 -11 0 -15 11 -15 40 l0 41 47 -3 c29 -1 48 3 51 10 5 16 10 15
28 -3z m-226 -15 c0 -5 -6 -7 -13 -4 -8 3 -20 -2 -27 -11 -10 -12 -10 -18 0
-30 7 -9 19 -14 27 -11 7 3 13 1 13 -4 0 -6 -11 -10 -25 -10 -31 0 -50 32 -35
60 11 20 60 29 60 10z m88 -27 c3 -28 -1 -33 -22 -39 -39 -9 -56 2 -56 35 0
32 12 41 50 38 20 -2 26 -8 28 -34z m290 0 c3 -28 -1 -33 -22 -39 -39 -9 -56
1 -56 37 0 41 -24 33 -28 -9 -5 -46 -22 -40 -22 7 l0 40 63 -2 62 -2 3 -32z
m160 15 c3 -14 -3 -18 -27 -18 -24 0 -29 -4 -24 -16 4 -11 13 -14 30 -9 16 4
22 2 18 -5 -11 -18 -54 -11 -65 10 -16 31 4 62 38 58 16 -2 28 -10 30 -20z
m122 12 c0 -5 -6 -7 -14 -4 -8 3 -17 1 -20 -5 -4 -5 3 -13 14 -16 30 -10 21
-39 -13 -43 -15 -2 -27 2 -27 8 0 7 8 9 20 5 27 -9 25 3 -6 32 -29 27 -44 19
-44 -24 0 -13 -4 -23 -10 -23 -5 0 -10 18 -10 39 l0 40 55 0 c30 0 55 -4 55
-9z"/>
<path d="M915 7292 c-72 -15 -81 -108 -14 -136 55 -23 100 5 101 63 2 49 -39
83 -87 73z m25 -72 c0 -5 -4 -10 -10 -10 -5 0 -10 5 -10 10 0 6 5 10 10 10 6
0 10 -4 10 -10z"/>
<path d="M3335 7292 c-72 -15 -81 -108 -14 -136 55 -23 100 5 101 63 2 49 -39
83 -87 73z m35 -70 c0 -4 -9 -13 -20 -20 -18 -11 -20 -10 -20 18 0 28 2 30 20
20 11 -6 20 -14 20 -18z"/>
<path d="M4347 7293 c-4 -3 -7 -15 -7 -25 0 -13 7 -18 25 -18 20 0 25 5 25 25
0 18 -5 25 -18 25 -10 0 -22 -3 -25 -7z"/>
<path d="M4400 7275 c0 -25 2 -26 48 -23 39 3 47 6 47 23 0 17 -8 20 -47 23
-46 3 -48 2 -48 -23z"/>
<path d="M4342 7193 c3 -40 6 -48 23 -48 17 0 20 8 23 48 3 45 2 47 -23 47
-25 0 -26 -2 -23 -47z"/>
<path d="M4400 7189 l0 -50 48 3 47 3 3 48 3 47 -50 0 -51 0 0 -51z"/>
<path d="M5481 7279 c-21 -8 -22 -13 -16 -47 7 -38 39 -82 60 -82 7 0 24 9 39
21 21 16 26 29 26 64 0 36 -4 44 -22 49 -31 8 -59 7 -87 -5z m59 -45 c0 -8 -4
-14 -10 -14 -5 0 -10 9 -10 21 0 11 5 17 10 14 6 -3 10 -13 10 -21z"/>
<path d="M1845 7270 c3 -5 8 -10 11 -10 2 0 4 5 4 10 0 6 -5 10 -11 10 -5 0
-7 -4 -4 -10z"/>
<path d="M1845 7170 c-3 -5 -1 -10 4 -10 6 0 11 5 11 10 0 6 -2 10 -4 10 -3 0
-8 -4 -11 -10z"/>
<path d="M1945 7170 c-3 -5 -1 -10 4 -10 6 0 11 5 11 10 0 6 -2 10 -4 10 -3 0
-8 -4 -11 -10z"/>
<path d="M427 7213 c-14 -13 -6 -33 13 -33 13 0 20 7 20 20 0 19 -20 27 -33
13z"/>
<path d="M2120 7235 c0 -20 4 -26 18 -23 9 2 17 12 17 23 0 11 -8 21 -17 23
-14 3 -18 -3 -18 -23z"/>
<path d="M3577 7220 c-4 -15 0 -20 13 -20 13 0 17 5 13 20 -3 11 -9 20 -13 20
-4 0 -10 -9 -13 -20z"/>
<path d="M4640 7235 c0 -20 4 -26 18 -23 9 2 17 12 17 23 0 11 -8 21 -17 23
-14 3 -18 -3 -18 -23z"/>
<path d="M330 7200 c0 -15 5 -20 18 -18 9 2 17 10 17 18 0 8 -8 16 -17 18 -13
2 -18 -3 -18 -18z"/>
<path d="M528 7213 c7 -3 16 -2 19 1 4 3 -2 6 -13 5 -11 0 -14 -3 -6 -6z"/>
<path d="M1405 7220 c-3 -5 3 -10 14 -10 12 0 21 5 21 10 0 6 -6 10 -14 10 -8
0 -18 -4 -21 -10z"/>
<path d="M2470 7220 c0 -5 9 -10 21 -10 11 0 17 5 14 10 -3 6 -13 10 -21 10
-8 0 -14 -4 -14 -10z"/>
<path d="M2554 7216 c-8 -22 3 -49 19 -43 6 2 12 14 12 27 0 27 -22 39 -31 16z"/>
<path d="M2735 7220 c-3 -5 3 -10 15 -10 12 0 18 5 15 10 -3 6 -10 10 -15 10
-5 0 -12 -4 -15 -10z"/>
<path d="M3834 7215 c-8 -21 2 -45 20 -45 7 0 16 7 20 15 8 21 -3 45 -20 45
-8 0 -17 -7 -20 -15z"/>
<path d="M4784 7215 c-8 -21 2 -45 20 -45 7 0 16 7 20 15 8 21 -3 45 -20 45
-8 0 -17 -7 -20 -15z"/>
<path d="M4910 7220 c0 -5 9 -10 21 -10 11 0 17 5 14 10 -3 6 -13 10 -21 10
-8 0 -14 -4 -14 -10z"/>
<path d="M5830 7220 c0 -5 9 -10 21 -10 11 0 17 5 14 10 -3 6 -13 10 -21 10
-8 0 -14 -4 -14 -10z"/>
<path d="M7094 7216 c-8 -22 3 -49 19 -43 6 2 12 14 12 27 0 27 -22 39 -31 16z"/>
<path d="M6537 6664 c-4 -4 -7 -27 -7 -51 l0 -44 48 3 47 3 0 45 0 45 -40 3
c-23 2 -44 0 -48 -4z"/>
<path d="M4301 6600 c-9 -28 -8 -30 14 -30 22 0 23 2 14 30 -6 17 -12 30 -14
30 -2 0 -8 -13 -14 -30z"/>
<path d="M518 6583 c7 -3 16 -2 19 1 4 3 -2 6 -13 5 -11 0 -14 -3 -6 -6z"/>
<path d="M5618 6583 c7 -3 16 -2 19 1 4 3 -2 6 -13 5 -11 0 -14 -3 -6 -6z"/>
<path d="M5830 6565 c0 -20 4 -26 18 -23 9 2 17 12 17 23 0 11 -8 21 -17 23
-14 3 -18 -3 -18 -23z"/>
<path d="M6153 6574 c-7 -18 11 -39 26 -30 17 11 13 46 -4 46 -9 0 -18 -7 -22
-16z"/>
<path d="M30 6089 c0 -5 5 -7 10 -4 6 3 10 8 10 11 0 2 -4 4 -10 4 -5 0 -10
-5 -10 -11z"/>
<path d="M115 6090 c3 -5 8 -10 11 -10 2 0 4 5 4 10 0 6 -5 10 -11 10 -5 0 -7
-4 -4 -10z"/>
<path d="M30 5990 c0 -5 5 -10 11 -10 5 0 7 5 4 10 -3 6 -8 10 -11 10 -2 0 -4
-4 -4 -10z"/>
<path d="M430 6020 c-13 -8 -12 -10 3 -10 9 0 17 5 17 10 0 12 -1 12 -20 0z"/>
<path d="M4544 5986 c-9 -23 0 -51 16 -51 10 0 15 10 15 29 0 32 -21 47 -31
22z"/>
<path d="M4634 5986 c-8 -21 -1 -49 13 -53 6 -2 14 5 17 15 12 36 -17 72 -30
38z"/>
<path d="M4810 5965 c0 -24 5 -35 15 -35 10 0 15 11 15 35 0 24 -5 35 -15 35
-10 0 -15 -11 -15 -35z"/>
<path d="M4720 5945 c0 -8 7 -15 15 -15 8 0 15 7 15 15 0 8 -7 15 -15 15 -8 0
-15 -7 -15 -15z"/>
<path d="M4900 5965 c-10 -12 -10 -15 4 -15 9 0 16 7 16 15 0 8 -2 15 -4 15
-2 0 -9 -7 -16 -15z"/>
<path d="M18050 5950 c0 -11 5 -20 10 -20 6 0 10 9 10 20 0 11 -4 20 -10 20
-5 0 -10 -9 -10 -20z"/>
<path d="M18094 5955 c-9 -23 10 -40 25 -22 9 11 8 17 -4 27 -12 10 -16 9 -21
-5z"/>
<path d="M16807 5344 c-4 -4 -7 -27 -7 -51 l0 -44 48 3 47 3 0 45 0 45 -40 3
c-23 2 -44 0 -48 -4z"/>
<path d="M18134 5337 c-3 -8 -4 -43 -2 -78 l3 -64 75 0 75 0 0 75 0 75 -73 3
c-55 2 -74 -1 -78 -11z m115 -82 c-14 -14 -16 -13 -16 15 0 28 2 29 16 15 14
-13 14 -17 0 -30z m-63 15 c0 -11 -4 -20 -8 -20 -10 0 -11 24 -1 33 9 9 9 10
9 -13z"/>
<path d="M7433 5314 c-3 -8 -1 -20 4 -25 14 -14 43 0 43 22 0 24 -38 26 -47 3z"/>
<path d="M7500 5311 c0 -22 29 -36 43 -22 15 15 0 41 -23 41 -13 0 -20 -7 -20
-19z"/>
<path d="M7475 5281 c-3 -6 -15 -11 -26 -11 -14 0 -19 -7 -19 -25 0 -19 7 -26
33 -33 45 -12 87 4 87 33 0 13 -7 25 -17 28 -10 2 -25 8 -34 12 -10 3 -20 2
-24 -4z m5 -41 c0 -5 -2 -10 -4 -10 -3 0 -8 5 -11 10 -3 6 -1 10 4 10 6 0 11
-4 11 -10z"/>
<path d="M17557 5324 c-8 -8 1 -24 14 -24 5 0 9 7 9 15 0 15 -12 20 -23 9z"/>
<path d="M17497 5262 c-38 -39 -45 -52 -27 -52 16 0 90 71 84 81 -9 15 -19 10
-57 -29z"/>
<path d="M3905 5260 c-8 -14 3 -30 21 -30 8 0 14 9 14 20 0 21 -24 28 -35 10z"/>
<path d="M4400 5290 c0 -11 4 -20 9 -20 11 0 22 26 14 34 -12 12 -23 5 -23
-14z"/>
<path d="M4400 5240 c0 -13 5 -20 13 -17 6 2 12 10 12 17 0 7 -6 15 -12 18 -8
2 -13 -5 -13 -18z"/>
<path d="M7816 5263 c-12 -12 -6 -33 9 -33 8 0 15 6 15 14 0 17 -14 28 -24 19z"/>
<path d="M7730 5245 c0 -8 7 -15 15 -15 8 0 15 7 15 15 0 8 -7 15 -15 15 -8 0
-15 -7 -15 -15z"/>
<path d="M8145 5291 c-3 -5 -1 -12 5 -16 5 -3 10 1 10 9 0 18 -6 21 -15 7z"/>
<path d="M8205 5241 c-3 -5 -1 -12 5 -16 5 -3 10 1 10 9 0 18 -6 21 -15 7z"/>
<path d="M8830 5250 c0 -11 5 -20 10 -20 6 0 10 9 10 20 0 11 -4 20 -10 20 -5
0 -10 -9 -10 -20z"/>
<path d="M9347 5254 c-8 -8 1 -24 14 -24 5 0 9 7 9 15 0 15 -12 20 -23 9z"/>
<path d="M16340 5280 c0 -5 7 -10 15 -10 8 0 15 5 15 10 0 6 -7 10 -15 10 -8
0 -15 -4 -15 -10z"/>
<path d="M3817 5263 c-14 -13 -6 -33 13 -33 13 0 20 7 20 20 0 19 -20 27 -33
13z"/>
<path d="M4008 5263 c7 -3 16 -2 19 1 4 3 -2 6 -13 5 -11 0 -14 -3 -6 -6z"/>
<path d="M4525 5239 c-4 -6 -5 -13 -2 -16 7 -7 27 6 27 18 0 12 -17 12 -25 -2z"/>
<path d="M4735 5270 c-3 -5 3 -10 15 -10 12 0 18 5 15 10 -3 6 -10 10 -15 10
-5 0 -12 -4 -15 -10z"/>
<path d="M7895 5260 c-3 -5 1 -10 10 -10 9 0 13 5 10 10 -3 6 -8 10 -10 10 -2
0 -7 -4 -10 -10z"/>
<path d="M8350 5229 c0 -5 5 -7 10 -4 6 3 10 8 10 11 0 2 -4 4 -10 4 -5 0 -10
-5 -10 -11z"/>
<path d="M8525 5260 c-3 -5 1 -10 10 -10 9 0 13 5 10 10 -3 6 -8 10 -10 10 -2
0 -7 -4 -10 -10z"/>
<path d="M9547 5254 c-9 -10 2 -24 19 -24 8 0 14 7 14 15 0 15 -21 21 -33 9z"/>
<path d="M9632 5244 c4 -21 22 -23 26 -1 2 10 -3 17 -13 17 -10 0 -15 -6 -13
-16z"/>
<path d="M9781 5257 c-9 -11 -8 -17 4 -27 12 -10 16 -9 21 5 9 23 -10 40 -25
22z"/>
<path d="M16430 5229 c0 -5 5 -7 10 -4 6 3 10 8 10 11 0 2 -4 4 -10 4 -5 0
-10 -5 -10 -11z"/>
<path d="M585 5110 c-3 -5 1 -10 9 -10 9 0 16 5 16 10 0 6 -4 10 -9 10 -6 0
-13 -4 -16 -10z"/>
<path d="M5184 4815 c-7 -17 4 -37 17 -30 12 8 12 45 -1 45 -6 0 -13 -7 -16
-15z"/>
<path d="M5265 4820 c-3 -5 1 -10 10 -10 9 0 13 5 10 10 -3 6 -8 10 -10 10 -2
0 -7 -4 -10 -10z"/>
<path d="M5560 4820 c0 -5 7 -10 16 -10 8 0 12 5 9 10 -3 6 -10 10 -16 10 -5
0 -9 -4 -9 -10z"/>
<path d="M5704 4815 c-3 -8 -3 -19 1 -25 11 -18 25 -11 25 15 0 27 -17 34 -26
10z"/>
<path d="M6010 4814 c0 -8 5 -12 10 -9 6 4 8 11 5 16 -9 14 -15 11 -15 -7z"/>
<path d="M6000 4760 c0 -5 7 -10 15 -10 8 0 15 5 15 10 0 6 -7 10 -15 10 -8 0
-15 -4 -15 -10z"/>
<path d="M6965 4820 c-3 -5 3 -10 15 -10 12 0 18 5 15 10 -3 6 -10 10 -15 10
-5 0 -12 -4 -15 -10z"/>
<path d="M685 4750 c-8 -27 10 -49 26 -33 13 13 8 45 -8 50 -6 2 -14 -6 -18
-17z"/>
<path d="M504 4756 c-8 -22 3 -49 19 -43 6 2 12 14 12 27 0 27 -22 39 -31 16z"/>
<path d="M5921 4600 c-6 -18 -6 -28 -1 -25 6 4 10 -1 10 -10 0 -9 5 -13 10
-10 6 3 10 13 10 21 0 8 -4 12 -10 9 -5 -3 -10 -1 -10 4 0 22 30 10 31 -11 0
-13 3 -17 6 -10 8 20 -6 62 -21 62 -8 0 -19 -14 -25 -30z"/>
<path d="M5115 4590 c-3 -5 1 -10 9 -10 9 0 16 5 16 10 0 6 -4 10 -9 10 -6 0
-13 -4 -16 -10z"/>
<path d="M5190 4559 c0 -5 5 -7 10 -4 6 3 10 8 10 11 0 2 -4 4 -10 4 -5 0 -10
-5 -10 -11z"/>
<path d="M6225 4590 c-3 -5 3 -10 15 -10 12 0 18 5 15 10 -3 6 -10 10 -15 10
-5 0 -12 -4 -15 -10z"/>
<path d="M6527 4593 c-13 -12 -7 -43 8 -43 9 0 15 9 15 25 0 24 -10 32 -23 18z"/>
<path d="M6747 4594 c-8 -8 1 -24 14 -24 5 0 9 7 9 15 0 15 -12 20 -23 9z"/>
<path d="M6740 4530 c0 -5 6 -10 14 -10 8 0 18 5 21 10 3 6 -3 10 -14 10 -12
0 -21 -4 -21 -10z"/>
<path d="M7115 4590 c-3 -5 3 -10 15 -10 12 0 18 5 15 10 -3 6 -10 10 -15 10
-5 0 -12 -4 -15 -10z"/>
<path d="M7190 4560 c0 -5 4 -10 9 -10 6 0 13 5 16 10 3 6 -1 10 -9 10 -9 0
-16 -4 -16 -10z"/>
<path d="M240 4030 l0 -80 55 0 55 0 0 54 c0 49 -2 55 -22 58 -15 2 -24 11
-26 26 -3 17 -10 22 -33 22 l-29 0 0 -80z"/>
<path d="M310 4085 c0 -9 9 -15 21 -15 18 0 19 2 9 15 -7 8 -16 15 -21 15 -5
0 -9 -7 -9 -15z"/>
<path d="M535 4040 c-3 -5 1 -10 9 -10 9 0 16 5 16 10 0 6 -4 10 -9 10 -6 0
-13 -4 -16 -10z"/>
<path d="M5637 3923 c-4 -3 -7 -15 -7 -25 0 -26 24 -17 28 10 3 21 -8 29 -21
15z"/>
<path d="M5705 3920 c-3 -5 3 -10 15 -10 12 0 18 5 15 10 -3 6 -10 10 -15 10
-5 0 -12 -4 -15 -10z"/>
<path d="M6005 3920 c-3 -5 1 -10 9 -10 9 0 16 5 16 10 0 6 -4 10 -9 10 -6 0
-13 -4 -16 -10z"/>
<path d="M6148 3918 c-7 -19 2 -38 18 -38 8 0 14 10 14 25 0 26 -24 35 -32 13z"/>
<path d="M6450 3915 c0 -8 5 -15 10 -15 6 0 10 7 10 15 0 8 -4 15 -10 15 -5 0
-10 -7 -10 -15z"/>
<path d="M6440 3860 c0 -5 9 -10 20 -10 11 0 20 5 20 10 0 6 -9 10 -20 10 -11
0 -20 -4 -20 -10z"/>
<path d="M240 3670 l0 -80 55 0 55 0 0 54 c0 49 -2 55 -22 58 -15 2 -24 11
-26 26 -3 17 -10 22 -33 22 l-29 0 0 -80z"/>
<path d="M310 3725 c0 -9 9 -15 21 -15 18 0 19 2 9 15 -7 8 -16 15 -21 15 -5
0 -9 -7 -9 -15z"/>
<path d="M4667 3694 c-15 -15 -7 -45 11 -42 9 2 17 12 17 22 0 20 -16 31 -28
20z"/>
<path d="M4890 3685 c0 -9 5 -15 11 -13 6 2 11 8 11 13 0 5 -5 11 -11 13 -6 2
-11 -4 -11 -13z"/>
<path d="M4890 3630 c0 -5 7 -10 15 -10 8 0 15 5 15 10 0 6 -7 10 -15 10 -8 0
-15 -4 -15 -10z"/>
<path d="M5485 3690 c-3 -5 1 -10 9 -10 9 0 16 5 16 10 0 6 -4 10 -9 10 -6 0
-13 -4 -16 -10z"/>
<path d="M5560 3660 c0 -5 4 -10 9 -10 6 0 13 5 16 10 3 6 -1 10 -9 10 -9 0
-16 -4 -16 -10z"/>
<path d="M534 3676 c-8 -22 3 -49 19 -43 6 2 12 14 12 27 0 27 -22 39 -31 16z"/>
<path d="M757 3675 c-8 -20 3 -47 17 -42 6 2 11 14 11 27 0 27 -20 38 -28 15z"/>
<path d="M936 3675 c-7 -20 3 -45 19 -45 16 0 26 25 19 45 -4 8 -12 15 -19 15
-7 0 -15 -7 -19 -15z"/>
<path d="M1085 3680 c-3 -5 1 -10 9 -10 9 0 16 5 16 10 0 6 -4 10 -9 10 -6 0
-13 -4 -16 -10z"/>
<path d="M240 3310 l0 -80 55 0 55 0 0 54 c0 49 -2 55 -22 58 -15 2 -24 11
-26 26 -3 17 -10 22 -33 22 l-29 0 0 -80z"/>
<path d="M310 3365 c0 -9 9 -15 21 -15 18 0 19 2 9 15 -7 8 -16 15 -21 15 -5
0 -9 -7 -9 -15z"/>
<path d="M1277 3315 c-8 -20 3 -47 17 -42 6 2 11 14 11 27 0 27 -20 38 -28 15z"/>
<path d="M500 3340 c0 -23 25 -27 33 -6 7 16 -1 26 -20 26 -7 0 -13 -9 -13
-20z"/>
<path d="M687 3321 c-3 -14 0 -21 9 -21 16 0 18 9 5 28 -6 10 -10 9 -14 -7z"/>
<path d="M780 3315 c0 -30 4 -45 13 -45 33 0 50 53 25 78 -25 25 -38 13 -38
-33z"/>
<path d="M240 2950 l0 -80 55 0 55 0 0 54 c0 49 -2 55 -22 58 -15 2 -24 11
-26 26 -3 17 -10 22 -33 22 l-29 0 0 -80z"/>
<path d="M310 3005 c0 -9 9 -15 21 -15 18 0 19 2 9 15 -7 8 -16 15 -21 15 -5
0 -9 -7 -9 -15z"/>
<path d="M627 2955 c-8 -20 3 -47 17 -42 6 2 11 14 11 27 0 27 -20 38 -28 15z"/>
<path d="M720 2960 c0 -5 7 -10 16 -10 8 0 12 5 9 10 -3 6 -10 10 -16 10 -5 0
-9 -4 -9 -10z"/>
<path d="M770 2958 c0 -13 -8 -18 -30 -18 -22 0 -28 -4 -24 -15 4 -9 16 -13
35 -11 41 4 52 18 34 42 -13 17 -14 17 -15 2z"/>
<path d="M240 2590 l0 -80 55 0 55 0 0 54 c0 49 -2 55 -22 58 -15 2 -24 11
-26 26 -3 17 -10 22 -33 22 l-29 0 0 -80z"/>
<path d="M310 2645 c0 -9 9 -15 21 -15 18 0 19 2 9 15 -7 8 -16 15 -21 15 -5
0 -9 -7 -9 -15z"/>
<path d="M677 2603 c-10 -9 -8 -41 2 -47 16 -10 41 5 41 24 0 10 -7 21 -16 24
-19 7 -19 7 -27 -1z"/>
<path d="M825 2569 c-4 -6 -5 -13 -2 -16 7 -7 27 6 27 18 0 12 -17 12 -25 -2z"/>
<path d="M1277 2603 c-10 -9 -8 -41 2 -47 16 -10 41 5 41 24 0 10 -7 21 -16
24 -19 7 -19 7 -27 -1z"/>
<path d="M504 2596 c-8 -22 3 -49 19 -43 6 2 12 14 12 27 0 27 -22 39 -31 16z"/>
<path d="M595 2569 c-4 -6 -5 -13 -2 -16 7 -7 27 6 27 18 0 12 -17 12 -25 -2z"/>
<path d="M904 2596 c-8 -22 3 -49 19 -43 6 2 12 14 12 27 0 27 -22 39 -31 16z"/>
<path d="M995 2600 c-3 -5 3 -10 15 -10 12 0 18 5 15 10 -3 6 -10 10 -15 10
-5 0 -12 -4 -15 -10z"/>
<path d="M1180 2595 c-11 -13 -11 -19 3 -33 20 -19 41 -5 35 24 -4 24 -22 28
-38 9z"/>
<path d="M1564 2596 c-8 -22 3 -49 19 -43 6 2 12 14 12 27 0 27 -22 39 -31 16z"/>
<path d="M240 2230 l0 -80 55 0 55 0 0 54 c0 49 -2 55 -22 58 -15 2 -24 11
-26 26 -3 17 -10 22 -33 22 l-29 0 0 -80z"/>
<path d="M310 2285 c0 -9 9 -15 21 -15 18 0 19 2 9 15 -7 8 -16 15 -21 15 -5
0 -9 -7 -9 -15z"/>
<path d="M677 2243 c-10 -9 -8 -41 2 -47 16 -10 41 5 41 24 0 10 -7 21 -16 24
-19 7 -19 7 -27 -1z"/>
<path d="M825 2209 c-4 -6 -5 -13 -2 -16 7 -7 27 6 27 18 0 12 -17 12 -25 -2z"/>
<path d="M504 2236 c-8 -22 3 -49 19 -43 6 2 12 14 12 27 0 27 -22 39 -31 16z"/>
<path d="M595 2209 c-4 -6 -5 -13 -2 -16 7 -7 27 6 27 18 0 12 -17 12 -25 -2z"/>
<path d="M904 2236 c-8 -22 3 -49 19 -43 6 2 12 14 12 27 0 27 -22 39 -31 16z"/>
<path d="M995 2240 c-3 -5 3 -10 15 -10 12 0 18 5 15 10 -3 6 -10 10 -15 10
-5 0 -12 -4 -15 -10z"/>
<path d="M1216 2235 c-7 -20 3 -45 19 -45 16 0 26 25 19 45 -4 8 -12 15 -19
15 -7 0 -15 -7 -19 -15z"/>
<path d="M240 1870 l0 -80 55 0 55 0 0 54 c0 49 -2 55 -22 58 -15 2 -24 11
-26 26 -3 17 -10 22 -33 22 l-29 0 0 -80z"/>
<path d="M310 1925 c0 -9 9 -15 21 -15 18 0 19 2 9 15 -7 8 -16 15 -21 15 -5
0 -9 -7 -9 -15z"/>
<path d="M504 1876 c-8 -22 3 -49 19 -43 6 2 12 14 12 27 0 27 -22 39 -31 16z"/>
<path d="M594 1876 c-8 -22 3 -49 19 -43 6 2 12 14 12 27 0 27 -22 39 -31 16z"/>
<path d="M804 1875 c-11 -27 2 -39 44 -40 23 -1 42 2 42 6 0 8 -63 49 -74 49
-4 0 -9 -7 -12 -15z"/>
<path d="M1116 1875 c-7 -20 3 -45 19 -45 16 0 26 25 19 45 -4 8 -12 15 -19
15 -7 0 -15 -7 -19 -15z"/>
<path d="M1387 1875 c-8 -20 3 -47 17 -42 6 2 11 14 11 27 0 27 -20 38 -28 15z"/>
<path d="M240 1510 l0 -80 55 0 55 0 0 54 c0 49 -2 55 -22 58 -15 2 -24 11
-26 26 -3 17 -10 22 -33 22 l-29 0 0 -80z"/>
<path d="M310 1565 c0 -9 9 -15 21 -15 18 0 19 2 9 15 -7 8 -16 15 -21 15 -5
0 -9 -7 -9 -15z"/>
<path d="M946 1515 c-8 -21 3 -45 20 -45 9 0 14 11 14 30 0 32 -23 42 -34 15z"/>
<path d="M555 1489 c-4 -6 -5 -13 -2 -16 7 -7 27 6 27 18 0 12 -17 12 -25 -2z"/>
<path d="M1150 1515 c-11 -13 -11 -19 3 -33 20 -19 41 -5 35 24 -4 24 -22 28
-38 9z"/>
<path d="M1416 1515 c-8 -21 3 -45 20 -45 9 0 14 11 14 30 0 32 -23 42 -34 15z"/>
<path d="M240 1150 l0 -80 55 0 55 0 0 54 c0 49 -2 55 -22 58 -15 2 -24 11
-26 26 -3 17 -10 22 -33 22 l-29 0 0 -80z"/>
<path d="M310 1205 c0 -9 9 -15 21 -15 18 0 19 2 9 15 -7 8 -16 15 -21 15 -5
0 -9 -7 -9 -15z"/>
<path d="M665 1150 c-3 -5 3 -10 15 -10 12 0 18 5 15 10 -3 6 -10 10 -15 10
-5 0 -12 -4 -15 -10z"/>
<path d="M854 1146 c-8 -22 3 -49 19 -43 6 2 12 14 12 27 0 27 -22 39 -31 16z"/>
<path d="M1124 1146 c-8 -22 3 -49 19 -43 6 2 12 14 12 27 0 27 -22 39 -31 16z"/>
<path d="M475 800 c-3 -5 3 -10 15 -10 12 0 18 5 15 10 -3 6 -10 10 -15 10 -5
0 -12 -4 -15 -10z"/>
<path d="M690 800 c0 -5 7 -10 16 -10 8 0 12 5 9 10 -3 6 -10 10 -16 10 -5 0
-9 -4 -9 -10z"/>
<path d="M574 436 c-8 -22 3 -49 19 -43 6 2 12 14 12 27 0 27 -22 39 -31 16z"/>
<path d="M844 436 c-8 -22 3 -49 19 -43 6 2 12 14 12 27 0 27 -22 39 -31 16z"/>
<path d="M574 76 c-8 -22 3 -49 19 -43 6 2 12 14 12 27 0 27 -22 39 -31 16z"/>
<path d="M864 76 c-8 -22 3 -49 19 -43 6 2 12 14 12 27 0 27 -22 39 -31 16z"/>
<path d="M1030 80 c0 -5 7 -10 16 -10 8 0 12 5 9 10 -3 6 -10 10 -16 10 -5 0
-9 -4 -9 -10z"/>
<path d="M3 6590 c0 -69 2 -81 16 -78 13 3 17 19 19 81 3 70 1 77 -16 77 -17
0 -19 -8 -19 -80z"/>
<path d="M52 6593 c3 -70 5 -78 23 -78 18 0 20 7 20 75 0 71 -1 75 -23 78 -22
3 -23 2 -20 -75z"/>
<path d="M0 4750 c0 -32 1 -33 17 -17 16 16 16 18 0 34 -16 16 -17 15 -17 -17z"/>
<path d="M0 4390 c0 -32 1 -33 17 -17 16 16 16 18 0 34 -16 16 -17 15 -17 -17z"/>
<path d="M0 430 c0 -32 1 -33 17 -17 16 16 16 18 0 34 -16 16 -17 15 -17 -17z"/>
<path d="M0 70 c0 -32 1 -33 17 -17 16 16 16 18 0 34 -16 16 -17 15 -17 -17z"/>
</g>
</svg>
